<svg width="128" height="128" xmlns="http://www.w3.org/2000/svg">
 <title>Camera Roid</title>

 <metadata id="metadata111">image/svg+xmlCamera Roid2018Cristian Pozzessere  == ilnanny ==Global LanguagePlaying with Inkscape on Gnu/Linux O. S.
In the night, alone like a wolf.</metadata>
 <g>
  <title>Layer 1</title>
  <rect stroke="#000000" id="svg_1" width="131.08951" height="118.4026" x="-1.50933" y="4.12472" rx="10.13659" ry="10.36211" stroke-miterlimit="4" stroke-linecap="round" stroke-width="0" fill="#040003" opacity="0.99"/>
  <rect id="svg_2" width="124.15046" height="112.13512" x="2.06175" y="7.0951" rx="10.13659" ry="10.36211" stroke-miterlimit="4" stroke-linecap="round" stroke-width="0" fill="#ffffff" opacity="0.99" stroke="#000000"/>
  <rect ry="10.52948" rx="10.29792" y="7.40401" x="1.35433" height="113.19198" width="125.29134" id="rect920" stroke-opacity="0.3619" stroke-miterlimit="4" stroke-linecap="round" stroke-width="0.41272" fill="#090107" opacity="0.08" stroke="null"/>
  <rect id="rect918" width="123.32855" height="111.39275" x="2.33572" y="8.38541" rx="10.13659" ry="10.36211" stroke-opacity="0.3619" stroke-miterlimit="4" stroke-linecap="round" stroke-width="0.4062" fill="#040003" opacity="0.15"/>
  <path d="m124.14886,109.00514c0,5.26738 -4.29911,9.5665 -9.56649,9.5665l-101.20347,0c-5.26739,0 -9.5665,-4.29912 -9.5665,-9.5665l0,-25.09753l120.33646,0l0,25.09753z" id="path4" stroke-width="0.38731" fill="#383836" opacity="0.55"/>
  <path d="m114.6211,9.42836l-101.2422,0c-5.26739,0 -9.5665,4.29911 -9.5665,9.5665l0,42.64256l120.33646,0l0,-42.64256c0,-5.30612 -4.26038,-9.5665 -9.52776,-9.5665z" id="path6" stroke-width="0.38731" fill="#eae4da"/>
  <rect x="3.85113" y="61.59869" width="120.33647" height="17.54503" id="rect8" stroke-width="0.38731" fill="#f4efea"/>
  <rect x="3.85113" y="79.14373" width="120.33647" height="4.76388" id="rect10" stroke-width="0.38731" fill="#d8cebc"/>
  <rect x="91.11153" y="14.57955" width="26.68549" height="24.71022" id="rect12" stroke-width="0.38731" fill="#61586b"/>
  <circle cx="104.43491" cy="26.93466" r="10.76715" id="circle14" stroke-width="0.38731" fill="#444049"/>
  <circle cx="104.43491" cy="26.93466" r="6.23565" id="circle16" stroke-width="0.38731" fill="#2f2e30"/>
  <path d="m101.25899,23.75874c1.5105,-1.5105 3.98926,-1.5105 5.49976,0c1.5105,1.5105 -3.98926,7.049 -5.49976,5.49977c-1.5105,-1.5105 -1.5105,-3.98927 0,-5.49977z" id="path18" stroke-width="0.38731" fill="#6c6b6d"/>
  <path d="m37.4307,36.77228c0,1.16192 -0.92954,2.09146 -2.09146,2.09146l-23.39338,0c-1.16192,0 -2.09146,-0.92954 -2.09146,-2.09146l0,-7.74616c0,-1.16192 0.92954,-2.09146 2.09146,-2.09146l23.39338,0c1.16192,0 2.09146,0.92954 2.09146,2.09146l0,7.74616z" id="path20" stroke-width="0.38731" fill="#372f47"/>
  <rect x="56.64115" y="79.14373" width="2.94354" height="4.76388" id="rect22" stroke-width="0.38731" fill="#f490f4"/>
  <rect x="59.58469" y="79.14373" width="2.90481" height="4.76388" id="rect24" stroke-width="0.38731" fill="#e23030"/>
  <rect x="62.4895" y="79.14373" width="2.90481" height="4.76388" id="rect26" stroke-width="0.38731" fill="#f46311"/>
  <rect x="65.3943" y="79.14373" width="2.90481" height="4.76388" id="rect28" stroke-width="0.38731" fill="#f7d116"/>
  <rect x="56.64115" y="61.63742" width="2.94354" height="17.5063" id="rect30" stroke-width="0.38731" fill="#f9b2f6"/>
  <rect x="56.64115" y="52.03219" width="2.94354" height="9.5665" id="rect32" stroke-width="0.38731" fill="#f490f4"/>
  <rect x="59.58469" y="61.63742" width="2.90481" height="17.5063" id="rect34" stroke-width="0.38731" fill="#ea4949"/>
  <rect x="59.58469" y="52.03219" width="2.90481" height="9.5665" id="rect36" stroke-width="0.38731" fill="#e23030"/>
  <rect x="62.4895" y="61.63742" width="2.90481" height="17.5063" id="rect38" stroke-width="0.38731" fill="#f27a2a"/>
  <rect x="62.4895" y="52.03219" width="2.90481" height="9.5665" id="rect40" stroke-width="0.38731" fill="#f46311"/>
  <rect x="65.3943" y="61.63742" width="2.90481" height="17.5063" id="rect42" stroke-width="0.38731" fill="#f9de3a"/>
  <rect x="65.3943" y="52.03219" width="2.90481" height="9.5665" id="rect44" stroke-width="0.38731" fill="#f7d116"/>
  <rect x="68.33784" y="61.63742" width="2.90481" height="17.5063" id="rect46" stroke-width="0.38731" fill="#4abc96"/>
  <g id="g52" transform="matrix(0.38730758,0,0,0.38730758,-32.091013,-32.091013) ">
   <rect x="259.29999" y="217.2" width="7.5" height="24.7" id="rect48" fill="#44ad87"/>
   <rect x="259.29999" y="287.20001" width="7.5" height="12.3" id="rect50" fill="#44ad87"/>
  </g>
  <circle cx="64" cy="33.98366" r="22.0378" id="circle54" stroke-width="0.38731" fill="#d8cebc"/>
  <circle cx="64" cy="36.11385" r="21.26319" id="circle56" stroke-width="0.38731" fill="#e8e8e8"/>
  <circle cx="64" cy="36.11385" r="19.90761" id="circle58" stroke-width="0.38731" fill="#1f1c37"/>
  <circle cx="64" cy="34.09985" r="9.5665" id="circle60" stroke-width="0.38731" fill="#403c55"/>
  <path d="m58.69388,28.83247c3.17593,-3.17592 8.28839,-3.17592 11.46431,0c3.17592,3.17592 -8.28838,14.64023 -11.46431,11.4643c-3.13719,-3.17592 -3.13719,-8.28838 0,-11.4643z" id="path62" stroke-width="0.38731" fill="#666477"/>
  <circle cx="23.64255" cy="51.25758" r="9.02427" id="circle64" stroke-width="0.38731" fill-opacity="0.76667" fill="#fafafa"/>
  <circle cx="23.64255" cy="51.25758" r="7.16519" id="circle66" stroke-width="0.38731" fill="#ea4949"/>
  <circle cx="98.78021" cy="51.25758" r="7.16519" id="circle68" stroke-width="0.38731" fill="#3e3d3f"/>
  <path d="m91.5763,51.25758c0,-3.95054 3.21465,-7.16519 7.16519,-7.16519c3.95053,0 7.16519,3.21465 7.16519,7.16519l-14.33038,0z" id="path70" stroke-width="0.38731" fill="#515151"/>
  <circle cx="98.78021" cy="51.25758" r="4.84134" id="circle72" stroke-width="0.38731" fill="#2f2e30"/>
  <rect x="11.51982" y="103.0406" width="104.92162" height="5.57723" id="rect74" stroke-width="0.38731" fill="#000000"/>
  <g id="g76"/>
  <g id="g78"/>
  <g id="g80"/>
  <g id="g82"/>
  <g id="g84"/>
  <g id="g86"/>
  <g id="g88"/>
  <g id="g90"/>
  <g id="g92"/>
  <g id="g94"/>
  <g id="g96"/>
  <g id="g98"/>
  <g id="g100"/>
  <g id="g102"/>
  <g id="g104"/>
 </g>
</svg>