<svg width="128" height="128" xmlns="http://www.w3.org/2000/svg" xmlns:xlink="http://www.w3.org/1999/xlink">
 <defs>
  <linearGradient id="6">
   <stop stop-color="#eee" id="G"/>
   <stop stop-opacity="0" stop-color="#eee" id="H" offset="1"/>
  </linearGradient>
  <linearGradient id="8">
   <stop stop-color="#eb7331" id="K"/>
   <stop stop-color="#cf4913" id="L" offset="1"/>
  </linearGradient>
  <linearGradient id="A">
   <stop stop-color="#eee" id="M"/>
   <stop stop-color="#dcdcdc" offset="1" id="N"/>
  </linearGradient>
  <radialGradient r="38.946" cy="148.57" cx="-64" gradientTransform="matrix(0.5353487,-0.7140729,0.764706,0.9803922,-143.34963,-217.19576)" gradientUnits="userSpaceOnUse" id="D" xlink:href="#A"/>
  <radialGradient gradientUnits="userSpaceOnUse" gradientTransform="matrix(1.5627464,0,0,1.0603606,-36.015772,-3.8734644)" r="47.599" cy="1.32" cx="64" id="E" xlink:href="#6"/>
  <linearGradient x1="-0.17139" y2="1.00001" x2="-0.17139" y1="0" id="F" xlink:href="#8"/>
 </defs>
 <g>
  <title>Layer 1</title>
  <path stroke="null" fill="#562a01" id="2" d="m63.71794,7.03532c-0.84561,0 -1.40888,0.33819 -3.04079,1.81278c-0.47336,0.42774 -0.99635,0.8307 -1.56425,1.2134c-0.14198,0.09569 -0.29102,0.19232 -0.43858,0.28507c-3.689,2.31917 -9.09843,3.72262 -15.22588,3.91796c-0.2451,0.00755 -0.49095,0.01079 -0.73827,0.01458c-0.24732,0.00431 -0.49617,0.00755 -0.74558,0.00755c-5.93283,0 -10.63874,-0.93114 -14.81654,-2.93114c-2.40716,-1.15236 -3.7511,-1.33259 -4.64159,-0.62862c-1.10411,0.87282 -5.44344,8.92879 -7.44117,13.82243c-5.38232,13.18455 -6.71652,26.97153 -3.94718,40.72905c2.45401,12.19105 7.47349,23.286 14.62649,32.33034c2.43665,3.08092 7.58861,8.23188 10.6647,10.66469c0.4066,0.32152 0.81584,0.63839 1.22801,0.95029c0.09169,0.06912 0.18572,0.13586 0.27777,0.20466c0.32988,0.2471 0.6604,0.48978 0.99411,0.73094c0.42542,0.30737 0.85445,0.60858 1.28649,0.90634c2.53249,1.7456 5.18049,3.32996 7.98939,4.77317c0.07798,0.03996 0.15571,0.07668 0.23391,0.11696c0.40471,0.20617 0.80924,0.41342 1.2207,0.61398c0.28665,0.1404 0.58047,0.27205 0.86983,0.40943c0.27244,0.12863 0.5432,0.26104 0.81868,0.38729c0.00972,0 0.01933,0.0108 0.02927,0.01512c0.39482,0.1809 0.79019,0.35737 1.19147,0.53352c0.49995,0.22043 1.00546,0.4388 1.51308,0.65059c0.51205,0.21362 1.02983,0.42379 1.54964,0.62867c0.52438,0.2066 1.04664,0.409 1.57887,0.60664c0.43258,0.1607 0.87067,0.32044 1.30841,0.47509c0.10271,0.03672 0.20385,0.07344 0.307,0.10973c0.05681,0.02052 0.09796,0.03132 0.15351,0.05076c0.04655,0.0162 0.09223,0.03564 0.13888,0.05076c0.05713,0.01944 0.09763,0.0324 0.1535,0.05076c1.83399,0.64217 3.0072,1.003 4.07876,1.06715c0.12858,0.0108 0.25983,0.01512 0.38741,0.01512c0.12799,0 0.25836,-0.0108 0.38741,-0.01512c1.07392,-0.06588 2.25747,-0.42865 4.10068,-1.07449c0.08937,-0.03132 0.16311,-0.05508 0.25583,-0.08748c0.18622,-0.0648 0.37023,-0.13165 0.55553,-0.19732c0.40929,-0.14515 0.81593,-0.2956 1.2207,-0.44593c1.05855,-0.39312 2.10106,-0.80665 3.1285,-1.2353c0.50886,-0.21233 1.01193,-0.42962 1.51309,-0.65059c0.46058,-0.20218 0.91478,-0.40554 1.36689,-0.61398c0.157,-0.07236 0.3116,-0.14569 0.46781,-0.21924c0.36004,-0.16967 0.71864,-0.3375 1.07451,-0.5117c0.4093,-0.20045 0.81694,-0.40748 1.2207,-0.61398c0.48312,-0.24613 0.95878,-0.49118 1.43267,-0.74563c1.42305,-0.76388 2.80428,-1.56935 4.15185,-2.41218c0.89467,-0.55955 1.78044,-1.13573 2.64608,-1.73232c0.43358,-0.29884 0.85955,-0.59789 1.28649,-0.90644c0.00713,0 0.01479,-0.0108 0.02191,-0.01512c0.41814,-0.3024 0.83777,-0.60912 1.24994,-0.92102c0.41234,-0.31136 0.82373,-0.6305 1.22801,-0.95018c3.07608,-2.43281 8.22803,-7.58388 10.66469,-10.66478c7.153,-9.04425 12.16518,-20.13931 14.61918,-32.33029c2.76934,-13.7575 1.43515,-27.54448 -3.94717,-40.72904c-1.99773,-4.89364 -6.32976,-12.9496 -7.43386,-13.82242c-0.3896,-0.30799 -0.86948,-0.44777 -1.48386,-0.40935c-0.0878,0.0054 -0.1769,0.01652 -0.27045,0.02927c-0.74834,0.10174 -1.6837,0.43254 -2.88727,1.00872c-3.65558,1.74999 -7.72073,2.68181 -12.65291,2.88729c-0.3523,0.01469 -0.70582,0.02927 -1.0672,0.0365c-0.36138,0.00756 -0.72564,0.00756 -1.09644,0.00756c-2.99286,0 -5.84574,-0.28325 -8.43526,-0.81867c-0.21579,-0.0446 -0.42379,-0.09083 -0.63594,-0.13888c-4.03088,-0.91374 -7.39287,-2.44904 -9.64135,-4.48078c-1.6319,-1.4746 -2.19519,-1.81278 -3.04079,-1.81278l-0.00001,0.00066z"/>
  <path stroke="null" fill="url(#F)" d="m64,13.3125c-0.1675,0.10856 -0.56257,0.41009 -1.25,1.03125c-0.51524,0.46558 -1.06798,0.92626 -1.6875,1.34375c-0.03951,0.02663 -0.19475,0.14025 -0.46875,0.3125c-3.92617,2.46827 -9.29673,3.80923 -15.28125,4c-0.34755,0.01072 -0.58497,-0.00204 -0.71875,0c-0.28308,0.00494 -0.51473,0 -0.71875,0c-5.73855,0 -10.49117,-0.94492 -14.71875,-2.96875c-0.97886,-0.4686 -1.64985,-0.64652 -1.9375,-0.6875c-0.15861,0.21785 -0.402,0.55944 -0.65625,0.96875c-0.50849,0.81862 -1.11797,1.92313 -1.78125,3.15625c-1.32657,2.46623 -2.78497,5.42821 -3.65625,7.5625c-4.81965,11.80622 -6.00737,24.07413 -3.53125,36.375c2.20521,10.95505 6.68648,20.90683 13.0625,28.96875c2.04866,2.59034 6.91413,7.45489 9.5,9.5c0.37328,0.29517 0.73455,0.57193 1.09375,0.84375c-0.13841,-0.10434 -0.0218,-0.07024 0.28125,0.15625c0.34926,0.26162 0.63162,0.51162 0.875,0.6875c0.39203,0.28324 0.75144,0.55504 1.125,0.8125c2.25527,1.55452 4.63506,2.95462 7.15625,4.25c0.26484,0.13572 0.33477,0.18477 0.21875,0.125c0.36819,0.18757 0.73024,0.35407 1.09375,0.53125c0.18518,0.0907 0.45036,0.21791 0.78125,0.375c0.36353,0.17164 0.59085,0.28513 0.71875,0.34375c0.01042,-0.00007 0.02083,-0.00007 0.03125,0c0.38472,0.17627 0.7322,0.35501 1.0625,0.5c0.42401,0.18695 0.89479,0.36215 1.375,0.5625c0.48733,0.20331 0.93592,0.42069 1.375,0.59375c0.47262,0.18621 0.96052,0.35413 1.4375,0.53125c0.41242,0.15321 0.78519,0.3064 1.15625,0.4375c-0.14262,-0.05099 -0.01147,-0.02022 0.3125,0.09375c0.05442,0.01467 0.07069,0.01225 0.125,0.03125c0.65129,0.22667 0.66813,0.22756 0.0625,0.03125c0.01042,-0.00007 0.02083,-0.00007 0.03125,0c-0.47825,-0.16273 -0.46016,-0.16105 0.125,0.03125c0.02099,0.0101 0.04182,0.02052 0.0625,0.03125c1.67046,0.58491 2.57,0.84177 3.125,0.875c0.02083,-0.00028 0.04167,-0.00028 0.0625,0c0.2779,0.02334 0.3176,0 0.15625,0c-0.23874,0 -0.10119,-0.0174 0.3125,-0.03125c0.56751,-0.03481 1.38451,-0.2558 3.0625,-0.84375c0.47771,-0.16741 0.54398,-0.16523 0.25,-0.0625c0.07816,-0.0272 0.24182,-0.09601 0.5,-0.1875c0.37556,-0.13319 0.73682,-0.27368 1.09375,-0.40625c0.9366,-0.34783 1.87571,-0.73417 2.8125,-1.125c0.48154,-0.20093 0.9498,-0.37502 1.375,-0.5625c0.41372,-0.18161 0.81232,-0.37512 1.21875,-0.5625c0.0199,-0.00917 0.14857,-0.06618 0.40625,-0.1875c0.36276,-0.17095 0.6894,-0.332 0.96875,-0.46875c0.36879,-0.18061 0.73352,-0.34702 1.09375,-0.53125c0.46981,-0.23935 0.9263,-0.48014 1.3125,-0.6875c1.25628,-0.67436 2.46802,-1.39353 3.6875,-2.15625c0.80764,-0.50512 1.60958,-1.00372 2.375,-1.53125c0.37543,-0.25875 0.73187,-0.52837 1.125,-0.8125c0.01042,-0.00007 0.02083,-0.00007 0.03125,0c0.05027,-0.04388 0.1024,-0.08559 0.15625,-0.125c0.0107,-0.00793 0.02047,-0.02322 0.03125,-0.03125c0.02068,-0.01073 0.04151,-0.02115 0.0625,-0.03125c0.27269,-0.2043 0.55728,-0.41582 0.875,-0.65625c-0.00007,-0.01042 -0.00007,-0.02083 0,-0.03125c0.35665,-0.26931 0.72138,-0.51805 1.09375,-0.8125c2.58587,-2.04511 7.45134,-6.90966 9.5,-9.5c6.37599,-8.06181 10.8573,-18.01376 13.0625,-28.96875c2.47612,-12.30085 1.2884,-24.56877 -3.53125,-36.375c-0.87128,-2.13429 -2.32968,-5.09627 -3.65625,-7.5625c-0.66329,-1.23312 -1.27276,-2.33763 -1.78125,-3.15625c-0.24862,-0.40026 -0.49834,-0.71936 -0.65625,-0.9375c-0.34557,0.05324 -0.95532,0.20102 -1.90625,0.65625c-3.69687,1.76976 -7.81387,2.73706 -12.625,2.9375c-0.34136,0.01423 -0.70859,0.02416 -1.0625,0.03125c-0.39835,0.00833 -0.71959,0 -1.03125,0c-2.91371,0 -5.70562,-0.27995 -8.28125,-0.8125c-0.18802,-0.03886 -0.38805,-0.07133 -0.625,-0.125c-4.01068,-0.90917 -7.49338,-2.45376 -10,-4.71875c-0.68743,-0.62116 -1.0825,-0.92269 -1.25,-1.03125zm-11.46875,97.46875c-0.34076,0 -0.33225,0.04432 -0.1875,0.03125c0.02349,-0.00212 0.15175,0.03498 0.1875,0.03125l0,-0.0625z" id="3"/>
  <rect rx="3.364" fill="url(#D)" transform="scale(-1) " y="-71.08" x="-93.78" height="14.13" width="59.56" id="4"/>
  <path stroke-width="2.1" stroke-linejoin="round" stroke="url(#E)" fill="none" id="5" d="m64,14.75c-0.18461,0.1503 -0.1943,0.16127 -0.5,0.4375c-0.53814,0.48627 -1.13247,0.97924 -1.8125,1.4375c0.05728,-0.0386 -0.19953,0.12362 -0.5,0.3125c-4.16057,2.61564 -9.7138,3.99209 -15.84375,4.1875c-0.39056,0.01205 -0.67625,-0.00065 -0.71875,0c-0.30674,0.00536 -0.56404,0 -0.75,0c-5.86125,0 -10.78786,-0.98755 -15.1875,-3.09375c-0.57008,-0.27291 -0.74814,-0.29221 -1.03125,-0.375c-0.06,0.09107 -0.09402,0.14982 -0.15625,0.25c-0.48194,0.77587 -1.05888,1.86698 -1.71875,3.09375c-1.3116,2.4384 -2.78191,5.40351 -3.625,7.46875c-4.74153,11.61486 -5.90285,23.62662 -3.46875,35.71875c2.17324,10.79625 6.58729,20.58925 12.84375,28.5c1.93689,2.44901 6.86798,7.37918 9.3125,9.3125c0.29275,0.23149 0.58951,0.43897 0.875,0.65625c0.04284,0.0205 0.05886,0.04352 0.09375,0.0625c0.04077,0.03095 0.08422,0.06289 0.125,0.09375c0.07712,0.05053 0.15321,0.08391 0.25,0.15625c0.39136,0.29316 0.70652,0.56575 0.875,0.6875c0.4043,0.29211 0.74701,0.57353 1.09375,0.8125c4.13259,2.93986 6.95131,4.39034 10.875,6c0.38044,0.16774 0.86891,0.35136 1.375,0.5625c0.52367,0.21847 0.96012,0.44254 1.34375,0.59375c0.44174,0.17405 0.91221,0.31654 1.40625,0.5c0.36493,0.13557 0.67724,0.26711 0.96875,0.375c0.0616,0.01264 0.06714,0.02378 0.09375,0.03125c0.02474,0.00694 0.06726,0.02319 0.09375,0.03125c0.01602,0.00487 0.04548,-0.00539 0.0625,0c0.13738,0.03162 0.09805,0.02283 0.125,0.03125c0.01078,0.00337 0.0187,0.02726 0.03125,0.03125c-0.0128,-0.00345 0.0677,0.02565 0.09375,0.03125c0.03398,0.00731 0.04126,0.00195 0.125,0.03125c0.05956,0.01942 0.10785,0.03633 0.1875,0.0625c0.03035,0.01051 0.06822,0.02243 0.09375,0.03125c0.01691,0.00592 0.0145,-0.00585 0.03125,0c0.01687,0.00583 0.04791,0.02621 0.0625,0.03125c0.05389,0.01866 0.04157,0.01338 0.09375,0.03125c0.02353,0.00815 -0.06989,-0.03504 0.09375,0.03125c1.31453,0.4449 2.19751,0.69645 2.46875,0.71875c0.00633,0.00052 0.05668,-0.00035 0.0625,0c0.02664,-0.00245 0.06729,0.00182 0.09375,0c0.09757,-0.00671 0.19337,-0.02622 0.34375,-0.03125c0.3444,-0.02112 1.06512,-0.20184 2.71875,-0.78125c0.10723,-0.03758 0.18965,-0.04006 0.25,-0.0625c-0.00094,0.00033 0.03075,0.00024 0.03125,0c0.00859,-0.00414 0.20001,-0.09227 0.46875,-0.1875c0.35501,-0.1259 0.72596,-0.26965 1.09375,-0.40625c0.91197,-0.33868 1.81662,-0.70434 2.75,-1.09375c0.50745,-0.21174 0.99326,-0.39418 1.375,-0.5625c0.38809,-0.17036 0.7677,-0.33771 1.1875,-0.53125c0.08372,-0.03858 0.15622,-0.06978 0.40625,-0.1875c0.35193,-0.16584 0.65592,-0.33091 0.9375,-0.46875c0.38666,-0.18937 0.7629,-0.36204 1.09375,-0.53125c0.46058,-0.23465 0.90073,-0.48319 1.28125,-0.6875c1.2284,-0.65939 2.41993,-1.34005 3.625,-2.09375c0.8093,-0.50616 1.60773,-0.99273 2.34375,-1.5c0.32649,-0.22502 0.65838,-0.47927 1.03125,-0.75c0.02081,-0.01816 0.04126,-0.04484 0.0625,-0.0625c0.05813,-0.04788 0.12095,-0.08976 0.1875,-0.125c-0.27997,0.20751 -0.26522,0.18957 0.03125,-0.03125c0.0205,-0.01107 0.04135,-0.02149 0.0625,-0.03125c0.02892,-0.02166 0.06464,-0.04072 0.09375,-0.0625c0.03058,-0.01587 0.0313,-0.01624 0.0625,-0.03125c0.19691,-0.14724 0.37723,-0.3055 0.59375,-0.46875c0.02937,-0.03308 0.06067,-0.06438 0.09375,-0.09375c-0.00015,-0.01042 -0.00015,-0.02083 0,-0.03125c0.38498,-0.2907 0.7597,-0.5171 1.09375,-0.78125c2.44452,-1.93332 7.37561,-6.86349 9.3125,-9.3125c6.25643,-7.91063 10.67052,-17.70381 12.84375,-28.5c2.4341,-12.09212 1.27278,-24.10388 -3.46875,-35.71875c-0.84309,-2.06524 -2.3134,-5.03035 -3.625,-7.46875c-0.65988,-1.22678 -1.23681,-2.31788 -1.71875,-3.09375c-0.05303,-0.08537 -0.10317,-0.14071 -0.15625,-0.21875c-0.27755,0.07695 -0.45691,0.08376 -1,0.34375c-3.84531,1.84082 -8.12843,2.85694 -13.0625,3.0625c-0.35307,0.01472 -0.70316,0.02406 -1.0625,0.03125c-0.4265,0.00892 -0.77077,0 -1.0625,0c-2.98531,0 -5.84359,-0.2945 -8.5,-0.84375c-0.15499,-0.03204 -0.38186,-0.06285 -0.65625,-0.125c-4.14082,-0.93867 -7.79881,-2.52794 -10.5,-4.96875c-0.3057,-0.27623 -0.31539,-0.2872 -0.5,-0.4375z"/>
 </g>
</svg>