<svg width="1144" height="774.71136" xmlns="http://www.w3.org/2000/svg" xmlns:xlink="http://www.w3.org/1999/xlink">
 <defs>
  <linearGradient y2="-0.00007" x2="0.5" y1="1" x1="0.5" id="acac56ab-bcae-42fb-a182-d934e873c548">
   <stop stop-opacity="0.25" stop-color="gray" offset="0"/>
   <stop stop-opacity="0.12" stop-color="gray" offset="0.53514"/>
   <stop stop-opacity="0.1" stop-color="gray" offset="1"/>
  </linearGradient>
  <linearGradient xlink:href="#acac56ab-bcae-42fb-a182-d934e873c548" y2="557.00513" x2="980.32402" y1="824.8256" x1="980.32402" id="af87c047-8598-4a2f-9e25-5794c516a383"/>
  <linearGradient xlink:href="#acac56ab-bcae-42fb-a182-d934e873c548" gradientTransform="matrix(-1, 0, 0, 1, -573.82483, 0)" y2="167.60673" x2="-1003.12709" y1="469.49298" x1="-1003.12709" id="a0dd3877-a1bb-4f12-811d-37917980f015"/>
 </defs>
 <title>Group chat</title>
 <g>
  <title>Layer 1</title>
  <path id="svg_1" opacity="0.1" fill="#00bf5f" d="m1144,461.32629c0,-71.09317 -30.06488,-133.884 -75.99115,-171.64q0.94818,-10.77543 0.96071,-21.85478c0,-115.42878 -79.23652,-209.00231 -176.97972,-209.00231c-31.178,0 -60.46625,9.53346 -85.90725,26.24756c-69.19343,-52.99785 -159.52124,-85.07676 -258.34154,-85.07676c-160.79285,0 -299.09895,84.92918 -360.45927,206.71809c-3.41,-0.23119 -6.843,-0.36142 -10.30206,-0.36142c-97.74319,0.00001 -176.97972,93.57352 -176.97972,209.0023c0,42.43773 10.72071,81.91248 29.12326,114.87784l0,0.00018c0,103.8533 84.18973,188.043 188.043,188.043l753.0735,0a147.64474,147.64474 0 0 0 147.64474,-147.64471l0,-0.00015c16.55857,-31.80371 26.1155,-69.23631 26.1155,-109.30884z"/>
  <path id="svg_2" fill="#e25514" d="m652.14319,665.87622s-12.29046,-8.10968 -24.4726,-2.34109c0,0 3.753,7.22847 19.17037,6.53944l5.30223,-4.19835z"/>
  <path id="svg_3" fill="#e25514" d="m653.65154,666.31012s3.73868,14.24235 -5.63279,23.93033c0,0 -5.64263,-5.87339 -0.04451,-20.255l5.6773,-3.67533z"/>
  <path id="svg_4" fill="#e25514" d="m668.97916,652.01251s-0.907,-12.11176 -28.2547,-8.09341c0,0 -0.12859,7.81394 9.47352,11.51682s13.99201,0.58137 18.78118,-3.42341z"/>
  <path id="svg_5" fill="#e25514" d="m670.66256,652.55567s11.56269,3.71774 1.25253,29.36431c0,0 -7.62681,-1.70463 -8.97841,-11.90684s2.71104,-13.7391 7.72588,-17.45747z"/>
  <path id="svg_6" fill="#e25514" d="m686.14491,634.75022s1.5641,-19.93043 -26.38128,-17.88434c0,0 -1.98509,18.038 21.44927,22.67559l4.93201,-4.79125z"/>
  <path id="svg_7" fill="#e25514" d="m703.98972,611.62554s-3.83222,-22.58286 -31.76811,-15.85186c0,0 -0.10487,19.52637 27.20633,21.236l4.56178,-5.38414z"/>
  <path id="svg_8" fill="#e25514" d="m717.4842,588.36579s-6.41431,-22.04821 -34.09368,-15.41393c0,0 6.58621,19.78558 32.25678,19.4769l1.8369,-4.06297z"/>
  <path id="svg_9" fill="#e25514" d="m730.30591,565.65291s-6.2715,-22.83468 -32.98775,-15.97773c0,0 8.91651,21.69016 31.23072,19.86405l1.75703,-3.88632z"/>
  <path id="svg_10" fill="#e25514" d="m738.57327,544.07236s-4.82174,-27.92372 -29.74239,-21.74427c0,0 7.23936,25.39984 27.9055,25.80725l1.83689,-4.06298z"/>
  <path id="svg_11" fill="#e25514" d="m746.31812,518.00041s-5.78487,-28.14639 -30.97421,-19.96083c0,0 9.88913,26.59781 29.21718,23.84716l1.75703,-3.88633z"/>
  <path id="svg_12" fill="#e26014" d="m751.116,493.73444s-9.18788,-28.14253 -28.6804,-27.38106c0,0 9.39638,29.727 27.052,33.0285l1.6284,-5.64744z"/>
  <path id="svg_13" fill="#e26014" d="m754.1631,470.05961s-10.00014,-33.88179 -25.86286,-31.26652c0,0 6.92284,25.895 25.29931,36.54345l0.56355,-5.27693z"/>
  <path id="svg_14" fill="#e26014" d="m755.89435,441.77797s-9.37151,-28.23193 -25.03322,-29.35543c0,0 6.37776,27.77616 24.68654,36.69193l0.34668,-7.3365z"/>
  <path id="svg_15" fill="#e26014" d="m757.78993,415.44857s-11.68948,-28.26279 -22.03947,-28.89967c0,0 5.07826,27.82693 21.006,33.53862l1.03347,-4.63895z"/>
  <path id="svg_16" fill="#e26014" d="m759.088,390.92994s-7.18589,-30.69463 -17.52371,-33.24082c0,0 1.41461,25.10678 16.48547,35.53729l1.03824,-2.29647z"/>
  <path id="svg_17" fill="#e26314" d="m762.9744,358.84439s-7.55827,-24.461 -15.92686,-28.19317c0,0 1.65393,28.843 13.98683,34.177l1.94003,-5.98383z"/>
  <path id="svg_18" fill="#e26314" d="m766.20846,337.76812l1.52515,-43.13873s-15.62053,32.55637 -2.6759,50.74869l1.15075,-7.60996z"/>
  <path id="svg_19" fill="#e26314" d="m778.29232,294.8975s11.26364,-31.50211 13.97161,-33.25645c0,0 -22.09624,20.43465 -19.93964,46.72792l5.96803,-13.47147z"/>
  <path id="svg_20" fill="#e25514" d="m686.90573,634.60367s19.82265,-2.59445 19.22694,25.4194c0,0 -17.911,2.91684 -23.75627,-20.24582l4.52933,-5.17358z"/>
  <path id="svg_21" fill="#e25514" d="m705.55072,611.49706s22.90562,-0.07631 21.03873,28.59835c0,0 -19.22227,3.43429 -25.56577,-23.185l4.52704,-5.41335z"/>
  <path id="svg_22" fill="#e25514" d="m717.70857,590.22248s20.79,-9.749 34.09368,15.41393c0,0 -19.20487,8.12531 -35.93058,-11.35095l1.8369,-4.06298z"/>
  <path id="svg_23" fill="#e25514" d="m730.76958,565.86254s21.28609,-10.37575 33.7864,14.21121c0,0 -22.17409,7.63393 -35.54343,-10.32489l1.75703,-3.88632z"/>
  <path id="svg_24" fill="#e25514" d="m738.29986,544.67711s20.4908,-19.5732 36.84255,0.22186c0,0 -20.932,16.1062 -37.78385,4.13657l0.9413,-4.35843z"/>
  <path id="svg_25" fill="#e25514" d="m745.15573,517.32984s20.61668,-20.0159 36.83729,0.92205c0,0 -23.13874,16.42671 -37.57094,3.27943l0.73365,-4.20148z"/>
  <path id="svg_26" fill="#e26014" d="m749.0127,492.93468s15.88094,-24.98429 34.57552,-19.41191c0,0 -16.47593,26.46752 -34.39875,25.28677l-0.17677,-5.87486z"/>
  <path id="svg_27" fill="#e26014" d="m753.69139,469.90198s16.01609,-31.48751 31.135,-26.021c0,0 -11.53278,24.19654 -31.54408,31.31214l0.40908,-5.29114z"/>
  <path id="svg_28" fill="#e26014" d="m754.79433,440.17198s16.45227,-24.78285 31.85985,-21.75667c0,0 -13.44385,25.12875 -33.45074,28.927l1.59089,-7.17033z"/>
  <path id="svg_29" fill="#e26014" d="m756.04925,414.89452s12.74736,-27.80169 23.114,-28.04766c0,0 -6.1244,27.61555 -22.25624,32.7223l-0.85776,-4.67464z"/>
  <path id="svg_30" fill="#e26014" d="m758.57857,390.32559s14.16937,-28.16072 24.816,-28.217c0,0 -7.25069,24.0786 -24.344,30.69268l-0.472,-2.47568z"/>
  <path id="svg_31" fill="#e26314" d="m760.70875,360.57197s10.60093,-23.30421 19.37544,-25.9444c0,0 -5.30033,28.4 -18.21035,32.126l-1.16509,-6.1816z"/>
  <path id="svg_32" fill="#e26314" d="m767.47014,336.95531l23.68786,-36.08547s-6.06893,35.59615 -27.147,42.96078l3.45914,-6.87531z"/>
  <path id="svg_33" fill="#e26314" d="m783.73013,297.80046s27.53164,-19.00688 28.52826,-22.07568c0,0 -14.04489,26.61879 -40.00491,31.31605l11.47665,-9.24037z"/>
  <path id="svg_34" fill="#e26314" d="m785.37569,289.25487s31.61033,-30.3881 39.68078,-30.35631c0,0 -26.06836,1.19264 -40.43815,28.73734l0.75737,1.61897z"/>
  <path id="svg_35" fill="#444053" d="m761.01467,365.08244l1.15371,0.14761c5.93932,-46.496 14.5992,-73.97444 24.38478,-77.37325l-0.38151,-1.09873c-10.37265,3.60274 -19.07186,30.68693 -25.15698,78.32437z"/>
  <path id="svg_36" fill="#444053" d="m752.28219,476.25468l1.73884,0.14661c0.36535,-4.34171 0.64738,-8.78591 0.83771,-13.20924c1.65753,-38.48525 4.23017,-73.82017 7.61456,-100.31343l-1.00837,-1.24567c-3.39052,26.54128 -6.68978,62.95021 -8.34935,101.48408c-0.18948,4.3994 -0.46978,8.81976 -0.83339,13.13765z"/>
  <path id="svg_37" fill="#444053" d="m619.05729,686.75999c0.30564,-0.1342 30.93385,-13.80955 62.72365,-46.43587a252.32356,252.32356 0 0 0 45.85106,-64.95586c14.69615,-29.92513 23.65453,-66.70932 26.66112,-102.43764l-1.81334,0.85221c-6.74827,80.19385 -43.26009,135.02267 -72.29266,164.84337c-31.48014,32.335 -61.76375,45.8713 -62.06589,46.004l0.93606,2.12979z"/>
  <path id="svg_38" fill="#fff" d="m629.67553,302.12059l0,377.78193c0,11.23585 -10.83659,20.37118 -24.21729,20.37118l-512.56631,0c-13.3807,0 -24.21713,-9.13533 -24.21713,-20.37118l0,-377.78193c0,-11.25569 10.83643,-22.72706 24.21713,-22.72706l512.56631,0c13.3807,0 24.21729,11.47137 24.21729,22.72706z"/>
  <path id="svg_39" opacity="0.2" fill="#007f3f" d="m629.67553,303.61081l0,59.38862l-561.00073,0l0,-59.38862a24.20965,24.20965 0 0 1 24.21713,-24.21728l512.56631,0a24.20978,24.20978 0 0 1 24.21729,24.21728z"/>
  <circle id="svg_40" fill="#fff" r="16.19393" cy="321.19648" cx="99.44102"/>
  <circle id="svg_41" fill="#fff" r="16.19393" cy="321.19648" cx="146.55622"/>
  <circle id="svg_42" fill="#fff" r="16.19393" cy="321.19648" cx="193.67142"/>
  <path id="svg_43" fill="url(#acac56ab-bcae-42fb-a182-d934e873c548)" d="m204.78342,699.5824s-15.65839,3.78875 -21.8565,10.872a21.07939,21.07939 0 0 1 -8.33523,5.29638l0,-10.7116c3.58,-6.01475 7.19348,-12.70478 7.19348,-12.70478c0.16311,-0.32945 1.468,-4.94181 1.468,-4.94181c2.93593,-2.3062 -0.16311,-10.37784 -0.16311,-10.37784s1.79419,-5.10656 0.81552,-6.09492s-0.16311,-3.624 0.65244,-4.77709a5.96691,5.96691 0 0 0 0.65244,-3.624c0,-0.98839 -1.30488,-2.47092 -3.42528,-3.29456s0.16311,-2.14147 1.468,-2.47092s1.63108,-3.45928 0.1631,-5.10656s0.1631,-2.63564 0.97864,-4.44764s-2.60973,-1.48252 -2.60973,-1.48252l0,-16.63445l0.00162,-0.0014s-0.97864,-5.436 -1.95729,-14.99351c-0.97864,-9.55253 -4.73178,-10.54089 -4.73178,-10.54089a42.69243,42.69243 0 0 1 -5.87187,-2.30787a40.188,40.188 0 0 0 -6.19973,-2.30286a31.78087,31.78087 0 0 1 -7.99068,-1.107a24.50869,24.50869 0 0 0 -5.456,-1.18112c-0.2006,-0.09387 -0.39146,-0.19272 -0.58718,-0.29153a21.35407,21.35407 0 0 1 -9.899,-10.48657c-0.10051,-0.22639 -0.19285,-0.4498 -0.28352,-0.67242a23.28862,23.28862 0 0 0 2.60779,-3.45895l0.01673,-0.02809c0.00176,0.16811 0.00723,0.3364 0.00729,0.50442c0.00009,0.07067 -0.00234,0.14108 -0.00252,0.21172c-0.0015,0.40622 -0.00555,0.8123 -0.01669,1.21747l0.00225,-0.00365l-0.00043,0.03583c2.6042,-4.59687 10.14933,-5.64632 10.86787,-10.89244a5.49919,5.49919 0 0 0 0.04749,-0.71938l0.00089,-0.03262c0,-0.17691 -0.00833,-0.3537 -0.02121,-0.53041c-0.09749,-1.46464 -0.59873,-2.92335 -0.69651,-4.40444a8.58073,8.58073 0 0 1 0.02086,-1.27058l0.00252,0.02376c0.33726,-4.07567 3.41034,-7.61842 4.81767,-11.57657a14.18062,14.18062 0 0 0 0.73442,-3.29415l0.00342,-0.02987q0.05166,-0.50968 0.06911,-1.02215c0.00306,-0.08475 0.00315,-0.1694 0.0048,-0.25421q0.00591,-0.35572 -0.00443,-0.71147a15.4134,15.4134 0 0 0 -5.0914,-11.13119c-2.60021,-2.2604 -6.037,-3.6805 -7.8369,-6.63024c-0.83976,-1.37623 -1.25322,-2.99334 -2.16826,-4.31974c-1.7236,-2.49842 -4.89462,-3.51627 -7.88843,-3.87755s-6.08071,-0.24018 -8.94788,-1.18225c-2.03155,-0.66751 -3.87578,-1.84745 -5.92935,-2.44219a11.34818,11.34818 0 0 0 -12.18844,4.39495c-1.08248,1.57868 -1.791,3.46963 -3.24932,4.70189c-2.98872,2.52542 -8.05961,1.42939 -10.67869,4.34353c-1.43818,1.60017 -1.60337,3.78042 -1.42863,6.01133l0.006,0.078q0.02118,0.25928 0.04764,0.51877c0.008,0.08055 0.016,0.1609 0.02465,0.24145c0.00947,0.08613 0.01948,0.172 0.02955,0.258c0.09229,0.79906 0.20807,1.59417 0.30844,2.36079c0.01531,0.11694 0.02685,0.23428 0.04089,0.35137c0.02839,0.2379 0.0562,0.47584 0.07955,0.71427c0.01711,0.17407 0.03155,0.34841 0.04593,0.52272q0.02674,0.32394 0.04717,0.64825c0.0108,0.16943 0.02228,0.33877 0.03059,0.50831a35.15846,35.15846 0 0 1 -3.741,17.56888c-2.46732,4.8453 -6.13759,9.30437 -6.77658,14.71451a15.597,15.597 0 0 0 -0.07041,2.66849c0.00539,0.1046 0.00759,0.20941 0.01479,0.31393c0.01135,0.16036 0.02859,0.32032 0.044,0.48043c0.01739,0.18372 0.03386,0.36749 0.05629,0.55089c0.013,0.10481 0.029,0.20941 0.04358,0.31413c0.03339,0.24361 0.0689,0.48706 0.11008,0.73023c0.00889,0.052 0.01881,0.10387 0.028,0.15581c0.64818,3.68716 2.11541,7.32592 2.89759,11.02524a30.54615,30.54615 0 0 1 0.58316,4.16645l0.00145,0.02882q0.04649,0.66733 0.06392,1.33634c0.0154,0.60344 0.00744,1.20709 -0.01261,1.81042a28.39159,28.39159 0 0 1 -3.80187,1.16749c-2.28514,0.33111 -8.97421,6.26131 -8.48488,7.74384c0.48442,1.4628 -2.99465,11.87521 -3.09252,12.18162l-0.00492,0.00491l0.00112,0.001l-0.00112,0.00064l-5.5027,37.88733s-2.90575,2.80036 -1.99769,4.61236s-0.17578,4.94181 -0.17578,4.94181s-4.90929,2.14147 -3.81963,3.45928s0.59239,3.78872 -0.15784,5.436s-1.97393,4.6124 0,5.10656s0.33946,6.91856 0.33946,6.91856s6.88427,-0.79008 6.37861,3.29456c-0.16151,1.30474 4.81509,4.88087 6.89289,6.31254l0,19.68008a60.23575,60.23575 0 0 1 -8.15543,-2.76605c-4.24079,-1.97675 -28.05462,-5.76548 -33.27408,5.60072s7.17679,26.52125 10.27583,28.1685c0,0 2.936,2.30617 3.58838,3.45928s4.40392,1.48253 4.40392,1.48253s3.91462,1.812 4.89326,2.80036c0.722,0.72918 6.683,2.62331 13.75426,4.09607l-0.00133,0.00056s-5.709,13.14377 3.60415,12.05852s13.85037,-5.6675 20.41737,-5.6675c2.62415,0 7.498,-0.36592 12.40462,-0.80523a32.71024,32.71024 0 0 1 3.64663,0.86014a46.65449,46.65449 0 0 0 8.48164,1.812s7.33986,3.95348 11.25444,2.96512a2.56885,2.56885 0 0 0 0.88945,-0.47561c0.02935,-0.00678 0.06026,-0.01128 0.08922,-0.01859a5.23066,5.23066 0 0 0 2.35753,-2.02123c4.89916,0.50042 10.47724,1.21378 12.57663,2.02445c4.0596,1.5676 33.07375,-0.60292 33.07375,-0.60292s18.7458,0.36855 24.11879,1.99306s3.46261,-16.58388 -6.44759,-18.63382a40.41681,40.41681 0 0 0 -8.06292,-0.7131a17.68246,17.68246 0 0 0 1.87294,-2.277c3.57145,-0.32489 5.91725,-0.52512 5.91725,-0.52512s9.46028,-4.61236 14.84285,-7.41275a33.852,33.852 0 0 0 9.13405,-7.248s4.73015,-2.96508 6.68744,-4.11817s2.93594,-4.94183 2.93594,-4.94183c14.84285,-33.60439 -22.83515,-29.15675 -22.83515,-29.15675zm-42.47564,-42.15406c0.00154,-0.55481 0.00339,-1.10962 0.00553,-1.66125c0.52132,0.37653 0.4448,0.96551 -0.00553,1.66125zm0.155,11.64985c0.3945,0.52015 0.77859,0.994 1.05424,1.34744c1.05423,1.35186 -0.85418,2.00943 -0.71576,4.27667c0.03108,0.5093 0.07452,1.21326 0.12308,1.99762l-0.00034,0c-0.20079,-3.24672 -0.3645,-5.94142 -0.46119,-7.62173l-0.00003,0z"/>
  <path id="svg_44" fill="#65617d" d="m77.559,721.06529s-9.134,-2.12041 -13.37484,-4.07771s-28.05461,-5.70878 -33.27407,5.54568s7.17676,26.26042 10.27582,27.8915s33.27409,-20.71474 33.27409,-20.71474l23.81379,10.03116l4.567,-15.57684l-25.28179,-3.09905z"/>
  <rect id="svg_45" fill="#65617d" rx="16.58821" height="36.04691" width="103.61574" y="724.16434" x="87.6297"/>
  <path id="svg_46" opacity="0.1" d="m191.24545,742.18615a18.02638,18.02638 0 0 1 -18.02184,18.02673l-67.57081,0a18.02427,18.02427 0 0 1 0,-36.04854l67.57081,0a18.02377,18.02377 0 0 1 18.02184,18.02181z"/>
  <path id="svg_47" fill="#fbbebe" d="m134.82987,743.2405s-10.38779,2.66831 -18.86518,2.54891s-48.1403,16.35778 -48.1403,16.35778s-5.709,13.01459 3.60415,11.94s13.85038,-5.6118 20.41738,-5.6118s27.22317,-2.2686 27.22317,-2.2686l19.87916,-14.68618l-4.11838,-8.28011z"/>
  <path id="svg_48" fill="#fbbebe" d="m141.33434,620.42753l-18.63834,3.67483l-1.20862,0.23977s-14.73355,-3.9146 -15.22288,-4.24247c-0.48932,-0.32294 -13.86257,-18.34967 -13.86257,-18.34967s6.76247,0.07341 12.07653,-2.98976c0.19084,-0.10764 0.37679,-0.22507 0.56273,-0.34254a11.75729,11.75729 0 0 0 5.04,-6.15568c0.093,-0.26912 0.17615,-0.548 0.25446,-0.83676a16.537,16.537 0 0 0 -0.15659,-8.02493c-1.80071,-7.60409 2.37321,-9.69839 7.93683,-9.51734c8.0347,0.26422 18.976,5.2798 18.976,5.2798a22.27606,22.27606 0 0 0 1.71754,7.43774c0.08807,0.2202 0.18591,0.44038 0.28378,0.66548a21.22647,21.22647 0 0 0 9.89906,10.38348c0.19571,0.09784 0.38656,0.19571 0.58717,0.28868c0.59209,0.28382 1.21844,0.55294 1.86922,0.7976c14.19042,5.38258 -10.11432,21.69177 -10.11432,21.69177z"/>
  <path id="svg_49" opacity="0.1" d="m139.09322,587.266a23.49289,23.49289 0 0 1 -29.012,4.996a15.7895,15.7895 0 0 0 0.09787,-8.86169c-4.40392,-18.59433 26.91285,-4.23754 26.91285,-4.23754a22.56713,22.56713 0 0 0 2.00128,8.10323z"/>
  <path id="svg_50" fill="#fbbebe" d="m144.97491,570.74639a23.36333,23.36333 0 0 1 -3.5574,12.42886a23.08761,23.08761 0 0 1 -2.60807,3.42527a23.376,23.376 0 0 1 -15.90305,7.58943c-0.46977,0.02936 -0.94443,0.044 -1.41906,0.044a23.48758,23.48758 0 1 1 23.48758,-23.48758l0,0.00002z"/>
  <path id="svg_51" opacity="0.1" d="m141.33434,620.42753l-18.63834,3.67483l-1.20862,0.23977s-14.73355,-3.9146 -15.22288,-4.24247c-0.48932,-0.32294 -13.86257,-18.34967 -13.86257,-18.34967s6.76247,0.07341 12.07653,-2.98976c0.19084,-0.10764 0.37679,-0.22507 0.56273,-0.34254a21.871,21.871 0 0 0 15.89815,6.95332a22.6232,22.6232 0 0 0 3.31761,-0.26423c2.6228,-0.40125 5.26514,-0.66061 7.9026,-0.93463c5.04984,-0.52845 12.77626,-2.06 16.83278,-6.52267c0.19571,0.09784 0.38656,0.19571 0.58717,0.28868c0.59209,0.28382 1.21844,0.55294 1.86922,0.7976c14.19036,5.38258 -10.11438,21.69177 -10.11438,21.69177z"/>
  <path id="svg_52" fill="#e25514" d="m162.3753,668.05347c0.16148,3.59166 2.77446,44.03921 2.77446,44.03921l-81.39424,0l0.55294,-25.46444l0.44527,-20.37058l0.1468,-6.68416l0.65081,-23.15974l-2.35365,-2.07473l-12.81542,-11.30342l0.0049,-0.00487c0.09787,-0.30338 3.577,-10.61345 3.09254,-12.06186c-0.48933,-1.468 6.19973,-7.33987 8.48487,-7.66771a28.81474,28.81474 0 0 0 3.82652,-1.16459c3.84608,-1.35054 8.97912,-3.3372 9.54673,-3.02892c0.7976,0.4306 8.80294,-0.31318 9.14058,-0.34743l0.00979,0a21.82442,21.82442 0 0 0 16.45109,7.58942a22.62177,22.62177 0 0 0 3.31761,-0.26422c2.6228,-0.40125 5.26514,-0.66061 7.9026,-0.93463c5.30429,-0.55294 13.5543,-2.21662 17.42,-7.21264a24.72341,24.72341 0 0 1 5.456,1.1695a32.07953,32.07953 0 0 0 7.99068,1.09608a40.4481,40.4481 0 0 1 6.19973,2.28024a42.95505,42.95505 0 0 0 5.87189,2.28517s3.75312,0.97864 4.73176,10.43727c0.97865,9.46355 1.9573,14.84612 1.9573,14.84612l-19.41156,16.79852s-0.16149,17.61568 0,21.20241z"/>
  <polygon id="svg_53" fill="#fbbebe" points="70.382 696.273 73.234 700.84 83.92 704.606 91.26 691.216 84.493 686.649 73.644 682.409 67.446 685.997 70.382 696.273"/>
  <path id="svg_54" fill="#65617d" d="m161.55975,718.78177s15.16907,-1.14175 21.36718,-8.15541s21.8565,-10.76514 21.8565,-10.76514s37.678,-4.40392 22.83514,28.87015c0,0 -0.97865,3.75149 -2.93594,4.89325s-6.68744,4.0777 -6.68744,4.0777l-57.89279,-5.05614l1.45735,-13.86441z"/>
  <path id="svg_55" opacity="0.1" d="m191.24545,742.18615a17.96684,17.96684 0 0 1 -2.99957,9.96267c-9.73757,0.86608 -31.307,2.89189 -35.81856,4.14946c-5.544,1.53649 -16.76427,-1.14013 -17.99245,-1.44351c-0.07341,-0.01467 -0.11256,-0.02446 -0.11256,-0.02446s-2.16281,-6.56183 -3.19528,-10.76025c-0.46486,-1.90837 -0.69973,-3.3274 -0.39635,-3.43017c0.97865,-0.32783 9.95285,-2.77446 9.78649,-1.38969c-0.16148,1.38969 26.91283,-10.52052 26.91283,-10.52052l0.83181,10.44058c2.75983,3.16595 22.98364,-1.51523 22.98364,3.01589z"/>
  <path id="svg_56" fill="#65617d" d="m219.137,733.46151l-1.14176,4.24081a33.77859,33.77859 0 0 1 -9.13406,7.17676c-5.38257,2.77284 -14.84285,7.33987 -14.84285,7.33987s-34.742,2.93595 -40.61394,4.567s-18.105,-1.468 -18.105,-1.468s-4.567,-13.8642 -3.58838,-14.19041s9.9496,-2.77284 9.7865,-1.38642s26.91279,-10.52044 26.91279,-10.52044l50.7267,4.24083z"/>
  <path id="svg_57" fill="#fbbebe" d="m122.41229,770.02758s17.07418,1.194 21.13378,2.7462s33.07376,-0.597 33.07376,-0.597s18.74578,0.36492 24.11878,1.97346s3.46259,-16.42085 -6.4476,-18.45064s-23.88,0.95519 -23.88,0.95519s-15.76079,-2.02979 -17.67118,-2.26859s-14.50458,0.11627 -14.50458,0.11627l-15.82296,15.52511z"/>
  <path id="svg_58" opacity="0.1" d="m55.30955,725.01383s22.56658,2.02979 28.77538,5.73119l-28.77538,-5.73119z"/>
  <path id="svg_59" opacity="0.1" d="m196.082,710.20824s-17.67118,4.2984 -24.59637,10.62659l24.59637,-10.62659z"/>
  <path id="svg_60" opacity="0.1" d="m56.623,719.87968c0.3582,0.1194 10.38779,1.4328 10.149,2.388s-10.149,-2.388 -10.149,-2.388z"/>
  <path id="svg_61" opacity="0.1" d="m40.85969,745.04219l1.30487,4.89325a21.13338,21.13338 0 0 1 3.58838,3.42527c0.65243,1.14176 4.40392,1.468 4.40392,1.468s3.91459,1.79419 4.89324,2.77284s11.58068,4.07771 21.53028,5.38257s28.38083,3.75149 32.29543,5.05636a47.06421,47.06421 0 0 0 8.48162,1.79419s7.33987,3.9146 11.25447,2.93595s10.602,-18.75745 10.602,-18.75745s-25.77109,-6.035 -26.58663,-7.9923s-25.608,-11.086 -25.608,-11.086l-14.67974,0.34741l-31.47984,9.75991z"/>
  <path id="svg_62" fill="#65617d" d="m39.881,745.53152l1.30487,4.89324a21.13354,21.13354 0 0 1 3.58838,3.42528c0.65243,1.14175 4.40392,1.468 4.40392,1.468s3.91459,1.79419 4.89324,2.77284s11.58069,4.0777 21.53029,5.38257s28.38082,3.75149 32.29542,5.05635a47.06322,47.06322 0 0 0 8.48162,1.79419s7.33987,3.9146 11.25447,2.93595s10.602,-18.75744 10.602,-18.75744s-25.77109,-6.035 -26.58663,-7.9923s-37.18858,-16.80018 -37.18858,-16.80018l-11.4176,-2.60973l-23.1614,18.43123z"/>
  <path id="svg_63" fill="#e25514" d="m73.23358,621.40618l-2.85131,1.63108l-5.5027,37.51489s-2.90575,2.77284 -1.9977,4.567s-0.17577,4.89324 -0.17577,4.89324s-4.90928,2.12041 -3.81963,3.42528s0.59237,3.75148 -0.15784,5.38257s-1.97392,4.567 0,5.05635s0.33945,6.85054 0.33945,6.85054s6.88428,-0.78231 6.37863,3.26217c-0.20392,1.63108 7.78687,6.85054 7.78687,6.85054s-9.08045,-16.47393 11.25976,-14.19041l1.74875,-9.28785s1.74875,-5.22878 0,-6.85986s0.39305,-9.37872 0.39305,-9.37872l0.38417,-33.68185l-13.78573,-6.03497z"/>
  <path id="svg_64" opacity="0.1" d="m68.80174,669.85108c0.3582,0.597 11.343,1.81489 12.05939,3.773s-12.05939,-3.773 -12.05939,-3.773z"/>
  <path id="svg_65" opacity="0.1" d="m65.33914,679.16427s1.48947,-4.65659 5.04313,-3.82079s-5.04313,3.82079 -5.04313,3.82079z"/>
  <path id="svg_66" opacity="0.1" d="m63.42875,685.97007s2.62679,-6.2088 6.20879,-5.7312s-6.20879,5.7312 -6.20879,5.7312z"/>
  <path id="svg_67" fill="#fbbebe" d="m182.92693,685.83392l-1.14176,6.85054s-11.74379,21.53028 -13.8642,21.8565s-13.70108,-14.35352 -13.70108,-14.35352l-3.09906,-14.35352l12.20066,-2.31238l5.415,-5.35371s13.70111,1.30485 14.19044,7.66609z"/>
  <path id="svg_68" fill="#e25514" d="m177.38125,626.95186l4.40392,3.09906l0,16.47392s3.42527,-0.32621 2.60973,1.468s-2.44662,2.77284 -0.97865,4.40392s1.14176,4.73014 -0.16311,5.05635s-3.58838,1.63108 -1.468,2.44663s3.42527,2.28351 3.42527,3.26216a5.858,5.858 0 0 1 -0.65243,3.58838c-0.81554,1.14176 -1.63108,3.75149 -0.65243,4.73014s-0.81554,6.035 -0.81554,6.035s3.09905,7.9923 0.1631,10.27582c0,0 -1.30486,4.567 -1.468,4.89324c0,0 2.05549,-15.87922 -18.46368,-9.16292c0,0 -0.38178,-6.05088 -0.5202,-8.29584s1.77,-2.89607 0.71576,-4.23463s-3.69259,-4.40443 -2.44662,-5.21946s0.81554,-2.28351 0.32622,-3.42527s-2.21678,-1.14159 -0.65354,-2.52818s2.48562,-2.688 1.56958,-3.342s-2.50959,-2.7786 -1.24226,-3.75316s1.30487,-15.16906 1.30487,-15.16906s5.21952,-20.87792 15.00601,-10.6021z"/>
  <path id="svg_69" opacity="0.1" d="m175.30643,655.01623s6.27108,-1.70087 6.47874,0s-6.47874,0 -6.47874,0z"/>
  <path id="svg_70" opacity="0.1" d="m168.26184,659.70209s8.59679,-2.1492 9.67139,-0.4776s-9.67139,0.4776 -9.67139,0.4776z"/>
  <path id="svg_71" opacity="0.1" d="m166.35144,664.23929s12.89519,-1.791 13.731,0.8358s-13.731,-0.8358 -13.731,-0.8358z"/>
  <path id="svg_72" opacity="0.1" d="m168.26184,669.85108c0.4776,0.1194 12.41759,0.9552 12.65639,3.2238s-12.65639,-3.2238 -12.65639,-3.2238z"/>
  <rect id="svg_73" fill="#3f3d56" rx="10.46684" height="58.07855" width="102.2521" y="677.20367" x="72.33957"/>
  <circle id="svg_74" fill="#e7effd" r="3.77153" cy="706.24294" cx="123.46562"/>
  <path id="svg_75" opacity="0.1" d="m89.46593,641.60768s9.79971,7.49124 17.37764,1.78245c0,-0.00005 -12.81057,1.16519 -17.37764,-1.78245z"/>
  <path id="svg_76" opacity="0.1" d="m139.09322,643.62109s9.79972,7.49124 17.37764,1.78245c0,0 -12.81061,1.16524 -17.37764,-1.78245z"/>
  <path id="svg_77" opacity="0.1" d="m144.97491,570.74639a23.36333,23.36333 0 0 1 -3.5574,12.42886c-0.19571,-6.54227 -1.73709,-13.08454 -5.29449,-18.54541c-3.25889,-5.00579 -13.16281,-13.77937 -19.9742,-11.33765a4.83512,4.83512 0 0 0 -2.97511,3.20018c-0.67527,2.564 1.30159,3.63081 2.569,5.67128a17.3655,17.3655 0 0 1 2.37321,11.71933a16.50191,16.50191 0 0 1 -0.34253,1.62456c-1.07162,4.02224 -3.528,8.62677 -0.99332,11.92971c1.76646,2.29983 5.56362,3.09253 6.07741,5.9453a3.47849,3.47849 0 0 1 0.04895,0.8074c-0.11747,1.91814 -1.75669,3.61122 -2.47112,5.5c-0.84162,2.22153 -0.367,4.42839 0.504,6.6597c1.13524,2.91149 2.94085,5.85724 3.37632,8.93018c0.43061,3.02892 -0.504,5.92571 -1.61966,8.82253a39.53786,39.53786 0 0 0 -2.69128,8.30383c-0.78781,5.42172 1.19885,11.69 -2.21173,15.97646a2.38469,2.38469 0 0 1 -1.49243,1.008c-2.1873,0.23 -1.81541,-3.6993 -3.5721,-5.02048c0.18595,2.28514 0.36213,4.66325 -0.46483,6.80159c-0.83186,2.13838 -2.9849,3.94886 -5.25048,3.59166q-0.389,-2.56161 -0.778,-5.12811a14.78943,14.78943 0 0 1 -5.43153,3.40081a39.58943,39.58943 0 0 1 5.66641,-15.35013c-5.74466,2.7647 -9.09166,8.754 -12.08142,14.38126c-1.86433,3.51824 -3.79227,7.36433 -3.14146,11.29362c0.26423,1.6001 0.95419,3.12189 1.10588,4.73665s-0.43551,3.49379 -1.93774,4.11034a3.50215,3.50215 0 0 1 -3.78247,-1.17439c-0.05384,-0.06361 -0.10766,-0.12723 -0.16148,-0.19574a3.822,3.822 0 0 1 -0.25936,-0.367a5.69922,5.69922 0 0 1 -0.43547,-0.77311a14.99247,14.99247 0 0 1 -0.91994,-2.99957l-0.10277,-0.4404c-1.51689,-6.6695 -2.887,-13.5445 -1.77625,-20.28738c0.41105,-2.48578 1.1597,-4.94709 1.07163,-7.4671a13.81017,13.81017 0 0 0 -0.85142,-4.16415c-1.331,-3.72865 -3.895,-7.15882 -5.35811,-10.91683a0.59853,0.59853 0 0 1 -0.03426,-0.08318c-0.76824,-1.99156 -1.145,-4.47733 0.274,-6.07254a12.362,12.362 0 0 1 2.72554,-1.84476c2.83808,-1.84963 4.11034,-5.35808 4.629,-8.70507a29.33427,29.33427 0 0 0 0.3572,-4.58007c3.84608,-1.35054 8.97912,-3.3372 9.54673,-3.02892c0.7976,0.4306 8.80294,-0.31318 9.14058,-0.34743a11.96057,11.96057 0 0 0 5.60277,-6.49822c0.093,-0.26912 0.17615,-0.548 0.25446,-0.83676a23.49037,23.49037 0 1 1 34.63927,-20.67886l0,0.00001z"/>
  <path id="svg_78" fill="#3f3d56" d="m117.77271,574.52759c-1.07322,4.02366 -3.52685,8.62755 -0.991,11.93072c1.767,2.30171 5.5632,3.09111 6.07352,5.94766c0.4038,2.2603 -1.60807,4.15926 -2.42016,6.30693c-1.9375,5.124 3.11139,10.16276 3.87876,15.58677c0.83249,5.8843 -3.4549,11.2481 -4.30947,17.12922c-0.78765,5.4206 1.19932,11.688 -2.21273,15.973a2.369,2.369 0 0 1 -1.492,1.00953c-2.1867,0.23214 -1.81582,-3.69641 -3.5736,-5.01767c0.189,2.28525 0.36559,4.66308 -0.46351,6.801s-2.9839,3.94834 -5.24891,3.5908l-0.77849,-5.13a14.8446,14.8446 0 0 1 -5.43226,3.40224a39.61227,39.61227 0 0 1 5.66679,-15.3496c-5.742,2.76587 -9.09041,8.75215 -12.07877,14.38155c-1.86676,3.51656 -3.79267,7.36277 -3.14241,11.29064c0.26521,1.602 0.95391,3.12159 1.10563,4.73833s-0.43632,3.49331 -1.93883,4.10923a3.55914,3.55914 0 0 1 -3.94312,-1.36689a10.31354,10.31354 0 0 1 -1.61406,-4.14222c-1.55821,-6.80812 -3.017,-13.83774 -1.87851,-20.72849c0.41074,-2.48612 1.15877,-4.948 1.06852,-7.46626c-0.19739,-5.50742 -4.261,-10.02168 -6.24486,-15.16317c-0.76857,-1.99186 -1.14251,-4.477 0.27437,-6.07406a12.45122,12.45122 0 0 1 2.72868,-1.84362c2.8366,-1.8504 4.11031,-5.35684 4.62975,-8.70355a30.16516,30.16516 0 0 0 -0.30737,-10.89628c-1.14563,-5.36488 -3.77188,-10.60041 -3.12214,-16.04764c0.639,-5.35695 4.30926,-9.7722 6.77659,-14.56986a34.49021,34.49021 0 0 0 3.495,-20.146c-0.42538,-3.21719 -1.16691,-6.94052 1.01417,-9.34346c2.6191,-2.88548 7.69,-1.80022 10.67871,-4.30084c1.45828,-1.22012 2.16683,-3.09247 3.24932,-4.65565a11.40677,11.40677 0 0 1 12.18842,-4.35175c2.05359,0.58888 3.89782,1.75724 5.92936,2.41818c2.86718,0.93282 5.95407,0.81292 8.94788,1.17064s6.16482,1.36556 7.88843,3.83943c0.915,1.31335 1.32849,2.91458 2.16827,4.27728c1.79993,2.92073 5.23669,4.32689 7.83688,6.56507a15.213,15.213 0 0 1 4.28225,16.24954c-1.55264,4.324 -5.14482,8.14507 -4.8392,12.7292c0.12555,1.88313 0.92615,3.72957 0.66754,5.59908c-0.71857,5.19456 -8.26368,6.23367 -10.86788,10.78536c0.20727,-7.4634 -1.22463,-15.1539 -5.29855,-21.41079c-3.26022,-5.0072 -13.16452,-13.78029 -19.9736,-11.33872a4.83715,4.83715 0 0 0 -2.97635,3.20075c-0.67394,2.56383 1.30067,3.62953 2.56774,5.6729a17.24558,17.24558 0 0 1 2.0312,13.34147z"/>
  <g id="svg_79" opacity="0.2">
   <path id="svg_80" d="m85.78094,600.39121a30.14531,30.14531 0 0 0 -0.65039,-6.9839c-0.974,-4.5611 -3.011,-9.02918 -3.20245,-13.61286c-0.26144,5.10174 2.12476,10.03408 3.20245,15.08084a30.10106,30.10106 0 0 1 0.65039,5.51592z"/>
   <path id="svg_81" d="m105.22,637.42268c0.39692,-0.72855 0.80907,-1.44871 1.25151,-2.15062c-5.742,2.76586 -9.09041,8.75214 -12.07877,14.38156c-1.7287,3.2565 -3.50406,6.79592 -3.24136,10.4209c0.218,-3.11069 1.74684,-6.13758 3.24136,-8.95293c2.76362,-5.20602 5.8394,-10.71176 10.82726,-13.69891z"/>
   <path id="svg_82" d="m92.32661,666.93018a3.46047,3.46047 0 0 1 -1.90948,2.86168a3.55915,3.55915 0 0 1 -3.94312,-1.36691a10.3134,10.3134 0 0 1 -1.61405,-4.14221a73.76365,73.76365 0 0 1 -2.27137,-14.81c-0.10922,5.44627 1.04743,10.93036 2.27137,16.278a10.31341,10.31341 0 0 0 1.61405,4.1422a3.55913,3.55913 0 0 0 3.94312,1.36691c1.50253,-0.61593 2.09056,-2.4925 1.93884,-4.10923c-0.00697,-0.074 -0.02025,-0.14685 -0.02936,-0.22044z"/>
   <path id="svg_83" d="m118.3034,569.62355a16.31787,16.31787 0 0 1 -0.52887,3.46792c-0.7956,2.98275 -2.34779,6.28393 -2.06562,9.13813c0.21659,-2.48306 1.40329,-5.18694 2.06562,-7.67015a16.53883,16.53883 0 0 0 0.52887,-4.9359z"/>
   <path id="svg_84" d="m92.56061,547.84897a33.8651,33.8651 0 0 0 -0.28062,-5.20514c-0.16809,-1.27122 -0.383,-2.62083 -0.45,-3.93741a29.44437,29.44437 0 0 0 0.45,5.40538a33.70664,33.70664 0 0 1 0.28062,3.73717z"/>
   <path id="svg_85" d="m122.85707,592.43783c-0.00717,-0.04 -0.02138,-0.07565 -0.0298,-0.11489c-0.34693,1.698 -1.74525,3.24775 -2.39036,4.95384a7.00226,7.00226 0 0 0 -0.40038,3.19223a6.72729,6.72729 0 0 1 0.40038,-1.72425c0.81209,-2.14767 2.82398,-4.04664 2.42016,-6.30693z"/>
   <path id="svg_86" d="m84.05,636.08798c-0.19738,-5.50741 -4.261,-10.02165 -6.24486,-15.16318a10.18266,10.18266 0 0 1 -0.63773,-2.50773a8.45247,8.45247 0 0 0 0.63773,3.97571c1.95079,5.05586 5.90412,9.50736 6.2233,14.89089c0.02323,-0.39749 0.03586,-0.79569 0.02156,-1.19569z"/>
   <path id="svg_87" d="m136.12561,562.21511c-3.26023,-5.00718 -13.16455,-13.78026 -19.97361,-11.33869a4.83714,4.83714 0 0 0 -2.97635,3.20074a3.46729,3.46729 0 0 0 -0.05131,1.71548c0.01672,-0.08228 0.02882,-0.162 0.05131,-0.2475a4.83711,4.83711 0 0 1 2.97635,-3.20074c6.80906,-2.44158 16.71338,6.3315 19.97361,11.33869c3.68968,5.66677 5.20711,12.50931 5.30752,19.29421c0.10835,-7.25896 -1.35144,-14.68625 -5.30752,-20.76219z"/>
   <path id="svg_88" d="m152.292,572.84057c-0.717,5.18321 -8.22991,6.22972 -10.84987,10.75627q0.00161,0.74953 -0.018,1.49706c2.60419,-4.5517 10.14933,-5.59082 10.86788,-10.78536a6.37813,6.37813 0 0 0 0.00508,-1.53822c-0.00292,0.02345 -0.00182,0.0468 -0.00509,0.07025z"/>
   <path id="svg_89" d="m156.4637,554.51228c-1.55264,4.324 -5.14484,8.14506 -4.83922,12.72919c0.00448,0.06735 0.01544,0.13428 0.02157,0.20154c0.33724,-4.03559 3.41034,-7.54353 4.81765,-11.46275a14.38346,14.38346 0 0 0 0.79835,-5.5868a14.13032,14.13032 0 0 1 -0.79835,4.11882z"/>
   <path id="svg_90" d="m117.79347,645.9658a2.369,2.369 0 0 1 -1.492,1.00953c-2.1867,0.23215 -1.81579,-3.69639 -3.57358,-5.01766c0.043,0.52014 0.08395,1.04525 0.114,1.57107c1.62247,1.40555 1.32384,5.14131 3.45961,4.91457a2.36911,2.36911 0 0 0 1.492,-1.00953c1.94649,-2.4445 2.13551,-5.53435 2.08536,-8.74393c-0.05014,2.67504 -0.4378,5.20683 -2.08539,7.27595z"/>
   <path id="svg_91" d="m112.26438,648.75868c-0.82911,2.1379 -2.98389,3.94835 -5.24889,3.59079q-0.38927,-2.565 -0.77849,-5.13a14.84407,14.84407 0 0 1 -5.16019,3.29712c-0.09829,0.523 -0.19523,1.04644 -0.27208,1.5731a14.845,14.845 0 0 0 5.43227,-3.40225q0.38922,2.565 0.77849,5.13c2.265,0.35755 4.41978,-1.45289 5.24889,-3.59079a11.56634,11.56634 0 0 0 0.603,-4.64166a9.8719,9.8719 0 0 1 -0.603,3.17369z"/>
   <path id="svg_92" d="m120.00621,629.99278a26.26938,26.26938 0 0 0 -0.19849,4.15663a21.471,21.471 0 0 1 0.19849,-2.68866c0.81451,-5.60552 4.74419,-10.74142 4.39019,-16.30564c-0.31611,5.00907 -3.64775,9.72822 -4.39019,14.83767z"/>
  </g>
  <path id="svg_93" fill="#fff" d="m738.99548,205.84185l0,98.1837c0,5.18218 -4.998,9.39557 -11.16946,9.39557l-236.40528,0c-6.17143,0 -11.1694,-4.21339 -11.1694,-9.39557l0,-98.1837c0,-5.19134 4.998,-10.48215 11.1694,-10.48215l236.40526,0c6.17145,-0.00002 11.16948,5.29081 11.16948,10.48215z"/>
  <path id="svg_94" opacity="0.2" fill="#007f3f" d="m738.99548,206.52917l0,27.39115l-258.74414,0l0,-27.39115a11.166,11.166 0 0 1 11.1694,-11.16947l236.40526,0a11.166,11.166 0 0 1 11.16948,11.16947z"/>
  <circle id="svg_95" fill="#fff" r="7.46895" cy="214.64001" cx="494.4413"/>
  <circle id="svg_96" fill="#fff" r="7.46895" cy="214.64001" cx="516.17172"/>
  <circle id="svg_97" fill="#fff" r="7.46895" cy="214.64001" cx="537.90214"/>
  <circle id="svg_98" fill="#e26714" r="29.19937" cy="273.03875" cx="688.03623"/>
  <rect id="svg_99" fill="#e25914" transform="rotate(-180 1748.5185546875,891.980224609375) " height="4.34608" width="123.13906" y="889.80718" x="1686.949"/>
  <rect id="svg_100" opacity="0.2" fill="#e31337" transform="rotate(-180 1156.345703125,594.9592285156249) " height="4.34608" width="123.13906" y="921.58796" x="1686.949"/>
  <rect id="svg_101" opacity="0.2" fill="#e31337" transform="rotate(-180 1156.345703125,616.1463623046874) " height="4.34608" width="123.13906" y="953.36867" x="1686.949"/>
  <rect id="svg_102" opacity="0.2" fill="#e31337" transform="rotate(-180 1156.345703125,637.3335571289061) " height="4.34608" width="123.13906" y="985.14945" x="1686.949"/>
  <path id="svg_103" fill="#e26014" d="m644.56791,452.11239s-8.67612,-1.99219 -14.35451,3.85217c0,0 3.65479,3.29952 12.24008,-0.35273l2.11443,-3.49944z"/>
  <path id="svg_104" fill="#e26014" d="m645.51392,452.03897s5.13069,7.27462 1.8733,14.74389c0,0 -4.43821,-2.1323 -4.31081,-11.46129l2.43751,-3.2826z"/>
  <path id="svg_105" fill="#e26014" d="m651.30129,441.05293s-3.07626,-6.66717 -17.71346,1.39478c0,0 1.58047,4.45235 7.80174,4.51771s8.04687,-2.63122 9.91172,-5.91249z"/>
  <path id="svg_106" fill="#e26014" d="m652.23731,440.65042s7.33472,-0.341 6.92229,16.36442c0,0 -4.67984,0.64834 -7.60388,-4.84334s-1.37165,-8.35428 0.68159,-11.52108z"/>
  <path id="svg_107" fill="#e26014" d="m657.3701,427.64509s-3.33115,-11.61783 -18.7241,-4.54636c0,0 2.69234,10.63521 16.94478,8.30323l1.77932,-3.75687z"/>
  <path id="svg_108" fill="#e26014" d="m663.06929,410.5302s-6.94838,-11.97819 -21.34471,-2.25556c0,0 4.07205,11.08026 19.90049,6.26987l1.44422,-4.01431z"/>
  <path id="svg_109" fill="#e26014" d="m665.79,394.50268s-8.29752,-11.12906 -22.569,-1.51551c0,0 7.91614,9.81133 22.38844,4.20508l0.18056,-2.68957z"/>
  <path id="svg_110" fill="#e26014" d="m668.24553,378.9272s-8.38305,-11.60466 -22.062,-2.06879c0,0 9.6388,10.39687 21.88928,4.64143l0.17272,-2.57264z"/>
  <path id="svg_111" fill="#e26014" d="m668.3614,364.95661s-8.63879,-14.79341 -21.44424,-6.02113c0,0 9.4739,12.85257 21.26363,8.7107l0.18061,-2.68957z"/>
  <path id="svg_112" fill="#e26014" d="m667.23105,348.55302s-9.23132,-14.71573 -21.76449,-4.75052c0,0 11.228,12.97036 21.59174,7.32316l0.17275,-2.57264z"/>
  <path id="svg_113" fill="#e26014" d="m664.81393,333.79568s-11.15768,-13.99353 -22.03547,-9.438c0,0 11.611,14.84671 22.30819,12.98078l-0.27272,-3.54278z"/>
  <path id="svg_114" fill="#e26014" d="m661.53036,319.7436s-12.832,-17.07189 -21.26194,-12.23455c0,0 9.39942,13.2 22.0593,15.34219l-0.79736,-3.10764z"/>
  <path id="svg_115" fill="#e26014" d="m656.5269,303.361s-11.28059,-14.00532 -20.38775,-11.32781c0,0 9.48876,14.38061 21.7437,15.55593l-1.35595,-4.22812z"/>
  <path id="svg_116" fill="#e25514" d="m652.02957,288.04922s-12.59982,-13.53234 -18.59592,-11.70314c0,0 8.76357,14.68432 18.99215,14.54891l-0.39623,-2.84577z"/>
  <path id="svg_117" fill="#e25514" d="m647.577,273.88931s-10.56391,-15.86239 -16.95709,-15.117c0,0 6.11326,13.919 16.855,16.63724l0.10209,-1.52024z"/>
  <path id="svg_118" fill="#e25514" d="m642.98917,254.89652s-9.45585,-12.25339 -14.98478,-12.59635c0,0 7.03931,15.98426 15.15218,16.39553l-0.1674,-3.79918z"/>
  <path id="svg_119" fill="#e25514" d="m640.36131,242.27646l-8.26368,-24.75278s-1.95778,21.74216 9.22212,29.30588l-0.95844,-4.5531z"/>
  <path id="svg_120" fill="#e25514" d="m638.13391,215.44149s-0.28652,-20.22328 0.87585,-21.78974c0,0 -8.18981,16.2476 -1.40531,30.68155l0.52946,-8.89181z"/>
  <path id="svg_121" fill="#e26014" d="m657.77,427.40113s10.67692,-5.66339 16.26679,10.32729c0,0 -9.5261,5.4415 -17.73717,-6.43909l1.47038,-3.8882z"/>
  <path id="svg_122" fill="#e26014" d="m663.43994,409.90546s12.95563,-4.88964 17.96543,11.74423c0,0 -10.15921,6.012 -19.38378,-7.72071l1.41835,-4.02352z"/>
  <path id="svg_123" fill="#e26014" d="m666.31,395.50668s9.71094,-9.91979 22.569,1.51551c0,0 -9.15682,8.66488 -22.74966,1.17406l0.18066,-2.68957z"/>
  <path id="svg_124" fill="#e26014" d="m668.55247,378.94782s9.85929,-10.3797 22.14055,0.89941c0,0 -10.9423,9.01485 -22.31331,1.67322l0.17276,-2.57263z"/>
  <path id="svg_125" fill="#e26014" d="m668.33451,365.35694s7.4629,-15.42007 20.91141,-7.66959c0,0 -8.44633,13.55 -20.52231,10.337l-0.3891,-2.66741z"/>
  <path id="svg_126" fill="#e26014" d="m666.43089,348.4192s7.44052,-15.69741 21.05658,-7.27194c0,0 -9.6282,14.19843 -20.5831,9.80653l-0.47348,-2.53459z"/>
  <path id="svg_127" fill="#e26014" d="m663.45357,333.7878s3.70737,-17.50909 15.47339,-18.3088c0,0 -3.7305,18.47494 -14.13027,21.59841l-1.34312,-3.28961z"/>
  <path id="svg_128" fill="#e26014" d="m661.22987,319.75414s2.408,-21.22054 12.12665,-21.32367c0,0 -1.41163,16.143 -11.23878,24.40667l-0.88787,-3.083z"/>
  <path id="svg_129" fill="#e26014" d="m655.56415,302.68425s4.07355,-17.51589 13.43936,-19.06209c0,0 -2.29665,17.07525 -12.82319,23.45935l-0.61617,-4.39726z"/>
  <path id="svg_130" fill="#e25514" d="m650.92657,288.10375s1.33667,-18.44161 7.15541,-20.7743c0,0 2.37462,16.93489 -5.68058,23.24013l-1.47483,-2.46583z"/>
  <path id="svg_131" fill="#e25514" d="m647.16061,273.65486s2.066,-18.94581 8.08343,-21.23032c0,0 0.98843,15.17017 -7.29232,22.53245l-0.79111,-1.30213z"/>
  <path id="svg_132" fill="#e25514" d="m642.07163,256.35425s1.0727,-15.44047 5.48321,-18.79218c0,0 3.00729,17.20479 -3.51549,22.04639l-1.96772,-3.25421z"/>
  <path id="svg_133" fill="#e25514" d="m640.90383,241.54921l5.77974,-25.44765s4.09458,21.44269 -6.284,30.07313l0.50426,-4.62548z"/>
  <path id="svg_134" fill="#e25514" d="m641.82763,215.93493s11.57005,-16.58907 11.48514,-18.53784c0,0 -2.32175,18.04625 -16.02943,26.19905l4.54429,-7.66121z"/>
  <path id="svg_135" fill="#e25514" d="m640.95144,210.74727s11.4718,-23.89739 16.04894,-25.587c0,0 -14.51054,6.191 -16.82039,24.83036l0.77145,0.75664z"/>
  <path id="svg_136" fill="#444053" d="m643.19921,258.84386l0.6846,-0.16051c-6.4742,-27.588 -7.38394,-44.98171 -2.56135,-48.977l-0.44853,-0.5415c-5.11193,4.23499 -4.30786,21.41375 2.32528,49.67901z"/>
  <path id="svg_137" fill="#444053" d="m661.77594,323.64992l1.01575,-0.28488c-0.71173,-2.53607 -1.49232,-5.11256 -2.32043,-7.65783c-7.20411,-22.14544 -13.22343,-42.70044 -16.9123,-58.42l-0.83461,-0.4921c3.69556,15.74808 9.53062,37.065 16.74386,59.23846c0.82353,2.53152 1.60006,5.09411 2.30773,7.61635z"/>
  <path id="svg_138" fill="#444053" d="m630.86794,471.0501c0.1447,-0.14068 14.59643,-14.3656 25.6963,-39.5685a152.54193,152.54193 0 0 0 12.22263,-46.48671c1.991,-20.05647 -0.71861,-42.78331 -6.5754,-63.65291l-0.84661,0.86629c13.14594,46.84273 4.06958,85.61833 -6.06246,108.649c-10.98614,24.97239 -25.27214,39.04567 -25.41517,39.18473l0.98071,1.0081z"/>
  <path id="svg_139" fill="url(#af87c047-8598-4a2f-9e25-5794c516a383)" d="m1064.8242,716.34414l-27.67165,-40.118s-0.51724,-9.93276 -2.32752,-12.2547s-0.38792,-7.48181 -0.38792,-7.48181s1.9396,-2.83792 0.2586,-3.09592s-0.2586,-6.57884 -0.2586,-6.57884l-0.12932,-10.06175s1.55168,-9.67476 0.25864,-11.9967a3.80389,3.80389 0 0 1 0.12928,-4.12791s1.55168,-5.54685 0,-6.96582s-1.16376,-10.06175 -0.77584,-16.89857s-2.71544,-10.70674 -2.71544,-11.73872s-10.2152,-11.09371 -10.2152,-11.9967s-6.46537,-4.64389 -10.34457,-5.67585s-5.8188,-1.806 -5.68948,-2.32194s-6.0774,-2.57994 -6.0774,-2.57994s-5.43088,-0.387 -7.4998,-3.09593c-2.03975,-2.67073 -8.39621,-3.49328 -8.57511,-3.51593c-0.03911,-0.18083 -0.08367,-0.36068 -0.11952,-0.541q-0.06066,-0.29179 -0.11734,-0.583c0.48878,-0.81865 0.94177,-1.6611 1.351,-2.52843q0.18411,-0.39033 0.35629,-0.78721a10.994,10.994 0 0 0 6.36322,-1.97321a8.66186,8.66186 0 0 0 3.09853,-6.18658a13.576,13.576 0 0 0 -1.51152,-6.8743c-1.13493,-2.32291 -2.7985,-4.72927 -2.223,-7.24884c0.2486,-1.08851 0.9008,-2.04344 1.23384,-3.10927a8.18673,8.18673 0 0 0 -0.928,-6.1097c-0.98031,-1.87434 -2.34357,-3.52108 -3.43228,-5.33493a20.92128,20.92128 0 0 1 -2.72964,-7.546a11.71088,11.71088 0 0 0 -1.00958,-4.10712a7.61937,7.61937 0 0 0 -2.26748,-2.29039a22.65916,22.65916 0 0 0 -13.89883,-4.21421c-3.51988,0.12209 -7.0284,1.06966 -10.524,0.64041a38.52624,38.52624 0 0 1 -6.14441,-1.608c-4.33682,-1.28223 -9.33953,-1.81142 -13.11607,0.67213c-3.84407,2.52791 -5.28035,7.36328 -7.83914,11.18167c-2.26345,3.37774 -5.57659,6.20869 -7.30225,9.78689c0.02046,-0.0689 0.03741,-0.13946 0.05825,-0.20814a11.75527,11.75527 0 0 0 -0.96374,2.60642c-0.65878,2.80958 -0.111,5.75136 0.5725,8.55508c0.3525,1.44594 0.83371,3.01552 2.08867,3.81982c1.28186,0.82151 3.03077,0.62244 4.52051,0.8871c-0.05867,0.24541 -0.12061,0.48955 -0.17308,0.7373a29.53549,29.53549 0 0 0 20.501,34.45273c0.00635,0.26348 0.01137,0.52606 0.00824,0.78276a20.25645,20.25645 0 0 1 -0.13576,2.21745l-0.0009,0.00059l-0.00076,-0.00153s-13.0001,-2.67188 -16.49139,-0.86591s-10.34452,3.22491 -11.379,4.25689s-3.62056,0.258 -5.94808,6.32084s-2.58616,12.2547 -5.5602,15.09262s-4.52572,4.77287 -4.655,6.83684s0.38792,2.57992 -0.77584,3.22491s-2.84477,3.35392 -2.32752,4.38588c0,0 0.64651,2.58 -1.42236,3.86991a4.3106,4.3106 0 0 0 -1.81033,3.8699s-0.77584,2.83795 -2.58612,3.48291s-2.974,4.90189 -2.974,4.90189l-5.86516,6.74148l-11.62151,-12.85328a4.90491,4.90491 0 0 0 -6.91575,-0.35555l-5.70472,5.13322a11.26189,11.26189 0 0 0 -5.71094,3.39816a14.848,14.848 0 0 0 -2.95926,4.40348l-3.12562,2.81251a7.93188,7.93188 0 0 0 -0.80079,8.76628l7.44525,8.23453l0.0456,0.06857a13.11681,13.11681 0 0 0 -7.2011,2.933c-11.11785,9.80245 -11.24968,18.83481 -9.56617,22.96012c1.67973,4.12921 15.7729,19.99581 15.7729,19.99581s8.18458,10.6428 20.00734,16.30306l-0.01629,0.01653c-0.02974,0.03078 -0.05962,0.05941 -0.08931,0.09084c-0.2344,0.24771 -0.46549,0.519 -0.69307,0.80918c-0.06336,0.08068 -0.127,0.16014 -0.1896,0.2443c-0.06062,0.08163 -0.12009,0.1674 -0.17995,0.25233c-0.07131,0.101 -0.1421,0.20344 -0.21209,0.30926q-0.0826,0.125 -0.1637,0.2546c-0.0753,0.11978 -0.14917,0.24348 -0.22257,0.36923c-0.04773,0.08189 -0.09574,0.16265 -0.14262,0.24711c-0.08983,0.16168 -0.1773,0.3299 -0.26376,0.50129c-0.02818,0.05591 -0.05754,0.10849 -0.08533,0.16543c-0.11034,0.22607 -0.21707,0.46156 -0.32078,0.70452c-0.03618,0.0847 -0.07027,0.17422 -0.1056,0.261c-0.06809,0.1677 -0.13528,0.33758 -0.2,0.51327c-0.04006,0.10874 -0.07879,0.22039 -0.11743,0.33226q-0.08559,0.24754 -0.16621,0.50561c-0.03756,0.11987 -0.075,0.23974 -0.11091,0.363c-0.05365,0.18415 -0.10417,0.37452 -0.154,0.56644c-0.03031,0.11663 -0.06213,0.23 -0.091,0.34957q-0.10825,0.44914 -0.20235,0.92536c-0.02339,0.11917 -0.04294,0.24527 -0.06492,0.36713c-0.0393,0.21832 -0.07785,0.438 -0.11232,0.665c-0.02316,0.15238 -0.04347,0.30952 -0.0644,0.46589c-0.02822,0.2113 -0.05474,0.42553 -0.0787,0.64423c-0.01781,0.162 -0.03466,0.3252 -0.05,0.4913c-0.02216,0.23958 -0.04044,0.48539 -0.05739,0.73364c-0.01023,0.15079 -0.022,0.299 -0.03031,0.453c-0.02187,0.40534 -0.03845,0.81921 -0.046,1.24749c-0.25988,15.09262 0.62454,17.28688 0.62454,17.28688s1.82714,4.80641 6.86233,5.15084a8.9572,8.9572 0 0 0 2.21113,-0.12c6.72268,-1.161 22.49936,-3.8699 28.05829,-2.83664c3.34382,0.61917 9.53118,-0.298 13.93794,-1.13q0.60618,-0.11373 1.16187,-0.224l0.80491,2.5653l2.559,-0.70031c0.82712,0.47965 1.56233,0.90493 2.16969,1.2537c0.58178,0.33663 1.04821,0.60458 1.36927,0.78841c2.55406,8.65258 12.91009,5.70143 12.91009,5.70143l2.45935,1.42024l24.95493,0.6424s5.3572,3.22751 8.83295,4.24142a7.877,7.877 0 0 0 1.253,0.27477a57.33139,57.33139 0 0 0 6.95539,0.13157c1.91246,-0.05031 3.39041,-0.13157 3.39041,-0.13157s-0.25447,-6.77457 -0.61644,-14.36078c9.53619,-0.39533 17.99462,-0.99357 23.11458,-1.89281c13.32452,-2.34027 18.8852,-14.4606 20.934,-20.9353a61.01008,61.01008 0 0 1 1.30677,8.0356a58.06412,58.06412 0 0 0 2.06892,6.96583a23.57574,23.57574 0 0 0 2.84476,5.15989c9.82728,-3.35393 3.87921,-8.3848 1.81028,-10.57776s1.42236,-3.99889 1.42236,-3.99889s2.71544,-1.806 2.45684,-3.48291s-0.38792,-3.48292 8.40492,-3.35393s8.40488,-7.22372 8.40488,-7.22372zm-136.53869,-82.36811c0.11223,0.73829 1.33821,8.68438 2.44761,10.77489a14.22336,14.22336 0 0 1 0.29113,4.249c-5.20841,-0.41528 -10.63565,-0.6371 -10.63565,-0.6371a1.243,1.243 0 0 1 0.27773,0.66257c-0.26442,-0.05749 -0.53775,-0.11872 -0.81827,-0.184c-0.38584,-0.08957 -0.7855,-0.18759 -1.19056,-0.2919l9.60178,-14.59613l0.02623,0.02267zm-19.016,30.2521l9.01914,1.428l0.75643,0.11961a29.88883,29.88883 0 0 0 -0.46672,4.25855c0.02676,0.13355 0.20334,0.29743 0.493,0.4819a11.79018,11.79018 0 0 0 -0.17511,2.13447c0.143,0.71344 4.36135,2.255 9.196,3.53454c-0.06563,0.26063 -0.13169,0.50795 -0.19827,0.7403l-0.00038,-0.00019c-4.271,-2.24843 -10.99748,-3.29716 -11.77332,-4.96509s-23.66312,-9.667 -23.66312,-9.667s-0.83721,-0.44309 -2.2796,-1.13863l6.03075,1.13992l1.65567,-0.168a90.23877,90.23877 0 0 0 11.40549,2.10162l0.00004,0z"/>
  <path id="svg_140" fill="#65617d" d="m1035.39283,721.95424s-3.5883,21.658 -21.78612,24.8618s-78.94262,2.56307 -78.94262,2.56307s-34.72962,-4.998 -47.28867,-34.34516s-20.63273,-41.00916 -9.86783,-41.52177s68.81848,19.6075 72.15048,19.86381s88.9386,-44.59746 85.73476,28.57825z"/>
  <path id="svg_141" opacity="0.05" d="m1035.39283,721.95424s-3.5883,21.658 -21.78612,24.8618s-78.94262,2.56307 -78.94262,2.56307s-34.72962,-4.998 -47.28867,-34.34516s-20.63273,-41.00916 -9.86783,-41.52177s68.81848,19.6075 72.15048,19.86381s88.9386,-44.59746 85.73476,28.57825z"/>
  <path id="svg_142" fill="#3f3d56" d="m872.48781,746.04712s1.81084,4.775 6.80113,5.11717a8.85636,8.85636 0 0 0 2.19141,-0.11918c6.66274,-1.15338 22.29873,-3.84461 27.80808,-2.81811c3.314,0.61513 9.44618,-0.296 13.81365,-1.12261c2.9027,-0.546 5.02493,-1.05727 5.02493,-1.05727s-5.12489,-17.04316 -5.76691,-17.55834c-0.63827,-0.51132 -23.06765,-13.96745 -23.06765,-13.96745l-17.75827,-1.27641l-0.05383,-0.00385a9.3531,9.3531 0 0 0 -6.02062,3.53705c-1.87622,2.2683 -3.48324,5.99373 -3.5909,12.09512c-0.25756,14.99397 0.61898,17.17388 0.61898,17.17388z"/>
  <path id="svg_143" opacity="0.05" d="m872.48781,746.04712s1.81084,4.775 6.80113,5.11717a73.22769,73.22769 0 0 1 -4.825,-7.03948l0.09612,-12.42962a21.89753,21.89753 0 0 1 6.97412,-18.45027l-0.05383,-0.00385s-9.354,0.6382 -9.61152,15.63217s0.61898,17.17388 0.61898,17.17388z"/>
  <path id="svg_144" opacity="0.1" d="m949.52991,718.87726l16.53182,-12.94094l26.01643,-25.632s-2.81038,-0.13457 -7.051,-0.31911c-1.05342,0.67281 -4.01,2.78734 -4.11761,5.35554c-0.12685,3.13336 -7.03175,0.21914 -10.6188,2.01072c-3.587,1.79545 -21.14535,24.26334 -24.221,24.11724c-3.07569,-0.14994 -5.50936,-1.56091 -6.7934,0.619c-0.02694,0.05 -0.06157,0.09611 -0.09226,0.14225l10.34582,6.6473z"/>
  <path id="svg_145" opacity="0.1" d="m875.45973,716.77812q0.88228,0.42674 1.79155,0.8189c12.56031,5.38245 28.06564,16.65867 29.219,18.7117c0.7036,1.24565 9.69224,6.705 16.63178,10.79567c2.9027,-0.546 5.02493,-1.05727 5.02493,-1.05727s-5.12489,-17.04316 -5.76691,-17.55834c-0.63827,-0.51132 -23.06765,-13.96745 -23.06765,-13.96745l-17.75827,-1.27641l-0.05383,-0.00385a9.3531,9.3531 0 0 0 -6.0206,3.53705z"/>
  <path id="svg_146" fill="#65617d" d="m840.6006,680.04668c1.66475,4.10222 15.63224,19.86511 15.63224,19.86511s8.8426,11.53383 21.4029,16.91628s28.06564,16.65867 29.219,18.7117c0.742,1.3187 10.74951,7.347 17.80441,11.48769c0.5459,0.31911 1.07261,0.63052 1.58008,0.92271c1.38025,0.80351 2.58361,1.50324 3.49863,2.02995c1.15338,0.66895 1.84928,1.065 1.84928,1.065s4.29055,-3.44478 8.56575,-6.91262c4.21757,-3.42169 8.41585,-6.86262 8.48118,-7.05485c0.1269,-0.38446 1.79165,-4.74426 1.40719,-4.998c-0.19993,-0.13455 -1.08036,-1.90693 -2.69893,-3.96379a18.13646,18.13646 0 0 0 -6.52813,-5.394c-5.89382,-2.69122 -8.45814,-8.8195 -8.45814,-8.8195s-0.56135,-0.40755 -1.411,-0.94579a17.13447,17.13447 0 0 0 -5.76306,-2.56819c-2.82188,-0.35372 -8.07368,-6.12063 -8.07368,-6.12063s-3.5908,-2.30677 -4.998,-5.25173c-1.34561,-2.81041 -21.22222,-16.46261 -23.0638,-17.72363l48.18448,30.94529l11.53,7.40855l16.53182,-12.94094l26.01643,-25.632s-3.49854,-0.16916 -8.585,-0.38831c-12.645,-0.54592 -35.10129,-1.40329 -37.93481,-0.76507a21.61993,21.61993 0 0 1 -7.051,0.46136s-6.39748,0.28834 -10.6304,-1.94537s-10.89941,-3.27562 -11.66833,-4.93264s-23.45211,-9.60385 -23.45211,-9.60385s-30.88376,-16.40109 -41.90622,-6.66269c-11.01862,9.73833 -11.14928,18.71165 -9.48078,22.80996z"/>
  <path id="svg_147" fill="#ee8e9e" d="m940.176,585.98454l3.97151,13.19855l5.12489,29.73034l18.83858,1.28411l5.45548,-9.04635l5.44008,-9.02331s3.391,-12.0144 5.82849,-23.63664c2.15677,-10.28433 3.56391,-20.26109 1.21871,-21.34528c-2.0799,-0.96115 -3.4486,-4.42514 -4.33673,-8.14672c-0.11151,-0.46136 -0.21532,-0.93039 -0.30759,-1.3956a72.59328,72.59328 0 0 1 -1.24949,-9.55384s-39.47257,-2.04918 -33.96321,14.22505a25.90005,25.90005 0 0 1 1.48781,8.65422a20.17122,20.17122 0 0 1 -0.13455,2.20295a18.45233,18.45233 0 0 1 -7.37398,12.85252z"/>
  <path id="svg_148" fill="#e3e8f4" d="m931.97162,583.80468l1.41094,22.42558l3.20259,19.09619l3.5908,8.84259l3.20259,48.38054s30.89911,3.57165 38.41529,-0.06535a3.28671,3.28671 0 0 0 1.361,-1.06112c9.07716,-13.706 6.10144,-53.40544 6.10144,-53.40544l3.46015,-25.632l-2.30677,-13.30233l-5.57468,-0.59206l-4.29064,-0.45751s-0.96881,1.19182 -2.36825,3.04107c-3.79847,5.01721 -10.788,14.88249 -10.319,19c0.63826,5.64005 -0.76892,11.407 -2.94878,12.30274c-2.17987,0.89965 -3.97152,2.4375 -4.356,0.89965s-0.76892,-1.9223 -0.38446,-4.10219s-1.6685,-8.8426 -1.6685,-8.8426s-3.46014,-7.81609 -3.20259,-11.14936s-0.38446,-7.1779 -1.41094,-8.07368c-1.02272,-0.8958 -2.43366,-1.79545 -1.28028,-5.89379c1.15338,-4.10219 -5.05567,-12.0836 -5.05567,-12.0836l-15.57824,10.67267z"/>
  <path id="svg_149" opacity="0.1" d="m972.78857,639.81432l1.284,38.31922s2.9104,1.61089 7.40087,4.10219a3.28678,3.28678 0 0 0 1.361,-1.06111c9.07716,-13.706 6.10144,-53.40544 6.10144,-53.40544l3.46014,-25.632l-2.30676,-13.30234l-5.57468,-0.59206c2.15677,-10.28433 3.56391,-20.26109 1.21871,-21.34527c-2.0799,-0.96115 -3.4486,-4.42515 -4.33673,-8.14673l0,0l-3.99451,27.11219s0.33443,2.44131 0.45364,4.96338a14.20458,14.20458 0 0 1 -0.323,4.775c-0.89958,2.30677 -0.25756,6.409 -0.25756,6.409c-2.31061,4.07143 -3.464,11.61072 -4.02914,18.89241c-0.74961,9.6845 -0.45742,18.91156 -0.45742,18.91156z"/>
  <path id="svg_150" fill="#3f3d56" d="m981.51944,558.14005s6.45655,0.80281 8.507,3.494s7.43291,3.07569 7.43291,3.07569s6.15137,2.05046 6.02322,2.56307s1.79415,1.28154 5.63876,2.30677s10.25229,4.74168 10.25229,5.63876s10.12413,10.893 10.12413,11.91828s3.07569,4.86984 2.69123,11.662s-0.76893,15.37843 0.76892,16.78812s0,6.9203 0,6.9203a3.7863,3.7863 0 0 0 -0.12816,4.10091c1.28154,2.30677 -0.2563,11.91829 -0.2563,11.91829l0.12815,9.996s-1.40969,6.27952 0.25631,6.53583s-0.25631,3.07569 -0.25631,3.07569s-1.40969,5.12614 0.38446,7.43291s2.30677,12.17459 2.30677,12.17459l27.42487,39.85577s0.38446,7.30475 -8.33,7.1766s-8.58629,1.666 -8.33,3.332s-2.43492,3.46015 -2.43492,3.46015s-3.46015,1.79415 -1.40969,3.97276s7.94552,7.1766 -1.79415,10.5086a23.43574,23.43574 0 0 1 -2.81938,-5.12615a57.79109,57.79109 0 0 1 -2.05046,-6.92029s-0.89707,-9.73967 -2.69122,-11.02121s-1.53785,-7.43291 -1.53785,-7.43291s2.56308,-4.998 -1.02522,-7.04845s-55.61867,-30.885 -55.61867,-30.885l-1.28153,-38.31792s-0.89708,-28.322 4.48537,-37.80532c0,0 -0.64077,-4.10091 0.25631,-6.40768s-0.12815,-9.73967 -0.12815,-9.73967l3.41131,-27.20249z"/>
  <path id="svg_151" opacity="0.1" d="m947.93272,573.51554s-12.88416,-2.6544 -16.34431,-0.86025s-10.25229,3.20384 -11.27752,4.22907s-3.5883,0.25631 -5.89506,6.27953s-2.56308,12.17459 -5.51061,14.994s-4.48538,4.74168 -4.61353,6.79214s0.38446,2.56307 -0.76892,3.20384s-2.81938,3.332 -2.30677,4.35722s26.656,23.58024 26.656,23.58024s1.28154,8.58629 2.43492,10.7649s-1.28153,32.16655 -3.84461,34.217s17.30069,1.86145 17.30069,1.86145s0.89708,-19.67478 1.666,-20.7s-0.51262,-22.04242 -0.51262,-22.04242s-0.12815,-17.9415 1.53785,-22.68318s1.47849,-20.50458 1.47849,-20.50458s1.47306,-9.45954 3.26319,-11.662s-3.26319,-11.82696 -3.26319,-11.82696z"/>
  <path id="svg_152" fill="#3f3d56" d="m947.54826,573.13108s-12.88417,-2.6544 -16.34431,-0.86025s-10.25229,3.20384 -11.27752,4.22907s-3.5883,0.25631 -5.89507,6.27953s-2.56307,12.17459 -5.5106,14.994s-4.48538,4.74168 -4.61353,6.79214s0.38446,2.56307 -0.76892,3.20384s-2.81938,3.332 -2.30677,4.35722s26.65595,23.58027 26.65595,23.58027s1.28154,8.58629 2.43492,10.7649s-1.28153,32.16655 -3.84461,34.217s17.30074,1.86143 17.30074,1.86143s0.89708,-19.67478 1.666,-20.7s-0.51262,-22.04242 -0.51262,-22.04242s-0.12815,-17.9415 1.53785,-22.68319s1.47849,-20.50457 1.47849,-20.50457s1.47306,-9.45954 3.26319,-11.662s-3.26319,-11.82697 -3.26319,-11.82697z"/>
  <path id="svg_153" opacity="0.1" d="m946.19667,562.27485a25.90005,25.90005 0 0 1 1.48781,8.65422a29.38947,29.38947 0 0 0 33.72489,-13.32543a72.59328,72.59328 0 0 1 -1.24949,-9.55384s-39.47257,-2.04918 -33.96321,14.22505z"/>
  <path id="svg_154" fill="#ee8e9e" d="m926.71982,542.02529a29.33,29.33 0 1 0 0.63827,-6.1014a29.3472,29.3472 0 0 0 -0.63827,6.1014z"/>
  <path id="svg_155" fill="#3f3d56" d="m907.88,609.94799l-7.04845,2.17861s0.64077,2.56308 -1.40969,3.84461a4.28742,4.28742 0 0 0 -1.79415,3.84461s-0.76892,2.81938 -2.56307,3.46015s-2.94753,4.86983 -2.94753,4.86983l-5.89507,6.79215s-2.17861,1.79415 -1.79415,2.69122s-2.30676,1.15338 -2.30676,1.15338l1.40969,22.81134l12.17458,2.30679l7.56106,-0.76892l6.15138,-2.30677l5.38245,-3.20384l2.43492,-6.27952l10.7649,-16.40366l-20.12011,-24.98998z"/>
  <path id="svg_156" fill="#ee8e9e" d="m883.91527,640.57668s-15.63474,-22.555 -27.29672,-10.38044s4.74168,31.91025 8.58629,31.26948s22.17058,-1.666 22.17058,-1.666l-3.46015,-19.22304z"/>
  <rect id="svg_157" fill="#3f3d56" transform="rotate(27.03580093383789 390.3920593261718,-394.7097473144531) " rx="1.54384" height="63.53929" width="81.83276" y="277.65431" x="1249.29714"/>
  <rect id="svg_158" fill="#e25514" transform="rotate(27.03580093383789 874.5689697265624,641.7730102539062) " height="51.83148" width="68.78342" y="615.85725" x="840.17735"/>
  <circle id="svg_159" fill="#e6e8ec" r="1.1281" cy="624.55625" cx="838.90788"/>
  <circle id="svg_160" fill="#e6e8ec" r="1.85984" cy="658.53563" cx="905.22498"/>
  <path id="svg_161" fill="#ee8e9e" d="m873.79113,645.31839c-0.1269,16.91627 34.859,20.50327 34.859,20.50327l8.93871,1.41867l4.0023,0.63437l1.6685,-16.53182s-1.83384,-0.273 -4.12526,-0.80736c-3.38708,-0.78816 -7.77379,-2.153 -8.69261,-4.06375c-1.53777,-3.20257 -36.52377,-18.06966 -36.65064,-1.15338z"/>
  <path id="svg_162" opacity="0.1" d="m927.35809,535.92389a3.4768,3.4768 0 0 1 2.14523,0.96116c0.99193,1.04959 1.04576,2.91037 2.3337,3.55626a2.59886,2.59886 0 0 0 1.53015,0.17686c3.40636,-0.48058 5.3786,-4.329 8.65036,-5.3863a8.69479,8.69479 0 0 1 5.73233,0.49212a4.27024,4.27024 0 0 1 1.89926,1.21873c1.09566,1.41867 0.32673,3.50244 0.83425,5.21714c0.70359,2.37981 3.54472,3.32557 6.00527,3.637s5.23251,0.4844 6.87417,2.34135a6.23,6.23 0 0 1 1.22255,4.95956a3.89494,3.89494 0 0 0 -0.01536,1.83391c0.67665,1.9223 4.00225,1.6378 4.87113,0.11918c0.63433,-1.1034 0.4421,-2.01842 1.9377,-2.326a6.36869,6.36869 0 0 1 3.13717,0.5421a23.03313,23.03313 0 0 0 8.116,1.24565a29.35124,29.35124 0 1 0 -55.27389,-18.5887l-0.00002,-0.00002z"/>
  <path id="svg_163" fill="#3f3d56" d="m964.56907,554.16453a3.94564,3.94564 0 0 1 0.01519,-1.83582a6.23239,6.23239 0 0 0 -1.21965,-4.95831c-1.64278,-1.85935 -4.41532,-2.03291 -6.87683,-2.3442s-5.30015,-1.25438 -6.00472,-3.63336c-0.50794,-1.71507 0.2604,-3.80224 -0.83387,-5.21718a4.22832,4.22832 0 0 0 -1.89741,-1.21883a8.70615,8.70615 0 0 0 -5.73438,-0.49548c-3.27162,1.058 -5.24519,4.90736 -8.64984,5.38831a2.60514,2.60514 0 0 1 -1.52955,-0.17741c-1.289,-0.64632 -1.34372,-2.50573 -2.33363,-3.55427c-1.55557,-1.64771 -4.508,-0.58307 -6.41448,-1.80786c-1.24379,-0.799 -1.72074,-2.35837 -2.07009,-3.79485c-0.6774,-2.78539 -1.2203,-5.70795 -0.56734,-8.49917c1.11523,-4.76727 5.37306,-8.03527 8.09406,-12.1055c2.536,-3.79345 3.95945,-8.5972 7.76921,-11.10859c3.74286,-2.46731 8.701,-1.9416 12.99911,-0.66774a38.10909,38.10909 0 0 0 6.08961,1.59745c3.46446,0.42645 6.94169,-0.51493 10.43019,-0.63622a22.41941,22.41941 0 0 1 13.77493,4.18666a7.56148,7.56148 0 0 1 2.24725,2.2754a11.65718,11.65718 0 0 1 1.00057,4.0803a20.81653,20.81653 0 0 0 2.70525,7.49663c1.079,1.802 2.43012,3.438 3.40172,5.30006a8.15028,8.15028 0 0 1 0.9197,6.06976c-0.33006,1.05886 -0.97645,2.00754 -1.22284,3.08894c-0.57034,2.50311 1.07839,4.89373 2.20321,7.20146a13.51422,13.51422 0 0 1 1.498,6.82936a8.61245,8.61245 0 0 1 -3.07092,6.14615a11.03483,11.03483 0 0 1 -6.49724,1.9689a23.0451,23.0451 0 0 1 -8.27715,-1.24257a6.408,6.408 0 0 0 -3.13725,-0.54163c-1.49644,0.30706 -1.30442,1.22264 -1.93824,2.32741c-0.87098,1.5182 -4.19338,1.80282 -4.87257,-0.1178z"/>
  <path id="svg_164" opacity="0.1" d="m948.761,719.64618l16.53182,-12.94094l26.01643,-25.632s-3.49854,-0.16916 -8.585,-0.38831a5.61743,5.61743 0 0 0 -1.81469,3.50244c-0.12685,3.13336 -7.03175,0.21914 -10.6188,2.01072c-3.587,1.79545 -21.14535,24.26334 -24.221,24.11724c-3.07569,-0.14995 -5.50936,-1.56091 -6.7934,0.619c-0.02694,0.05 -0.06157,0.09611 -0.09226,0.14225a3.647,3.647 0 0 1 -1.9531,1.1611l11.53,7.4085z"/>
  <path id="svg_165" fill="#65617d" d="m915.4398,718.7504l8.3082,26.51628l1.30337,4.16372l3.95222,-1.08418l8.72344,-2.39519l38.84209,-10.66878a33.7014,33.7014 0 0 0 13.97919,-3.72947a42.34964,42.34964 0 0 1 24.13689,-5.26251c5.13533,0.48085 10.84432,-1.73553 15.58153,-10.48867c0,0 10.76491,-31.77952 -16.40491,-40.8797c-27.16606,-9.10021 -28.46549,4.8365 -28.46549,4.8365s-0.13845,0.0769 -0.36907,0.22684c-1.05342,0.67281 -4.01,2.78734 -4.11761,5.35554c-0.12685,3.13336 -7.03175,0.21914 -10.6188,2.01072c-3.587,1.79545 -21.14535,24.26334 -24.221,24.11724c-3.07569,-0.14994 -5.50936,-1.56091 -6.7934,0.619c-0.02694,0.05 -0.06157,0.09611 -0.09226,0.14225c-0.94966,1.30717 -3.80237,1.61089 -5.69,1.66472c-1.03038,0.03076 -1.77626,-0.01539 -1.77626,-0.01539l-0.24216,0.073l-1.97233,0.58824l-14.06364,4.20984z"/>
  <path id="svg_166" opacity="0.1" d="m917.58888,667.24033l4.0023,0.63437l1.6685,-16.53182s-1.83384,-0.273 -4.12526,-0.80736c0.60748,2.30677 -0.76892,11.22241 -1.54554,16.70481z"/>
  <path id="svg_167" opacity="0.1" d="m1022.37988,589.99221s11.91828,-3.46014 8.97075,30.37241s-24.98995,55.2342 -24.98995,55.2342s-25.37441,11.14936 -36.78009,9.35521s-19.73565,-2.17861 -19.73565,-2.17861a28.97151,28.97151 0 0 0 -11.53382,-3.07569c-6.40768,-0.2563 -19.86381,-4.22906 -20.12012,-5.5106s3.332,-20.12012 1.79415,-21.52981c0,0 17.94151,0.735 19.73566,2.03352s4.35722,0.36752 6.27952,0s7.81737,-5.49366 19.47935,-1.00829c0,0 3.97276,0.38446 5.5106,-0.64076s4.0083,-0.25631 4.0083,-0.25631a11.28036,11.28036 0 0 0 2.78385,-1.40969c0.38446,-0.51262 3.46014,0 3.46014,0a1.363,1.363 0 0 0 1.92231,-0.89708a8.38353,8.38353 0 0 1 1.79415,-2.81938s3.46014,-19.47934 9.996,-26.7841c0,0 1.9223,-1.666 1.40969,-3.71645s10.63673,-31.26948 26.01516,-27.16857z"/>
  <path id="svg_168" fill="#3f3d56" d="m1022.06485,587.39296s11.91829,-3.46015 8.97075,30.3724s-24.98995,55.23421 -24.98995,55.23421s-25.37441,11.14936 -36.78008,9.35521s-19.73566,-2.17861 -19.73566,-2.17861a28.97151,28.97151 0 0 0 -11.53382,-3.07569c-6.40768,-0.25631 -19.86381,-4.22907 -20.12012,-5.5106s3.332,-20.12012 1.79415,-21.52981c0,0 17.94151,0.735 19.73566,2.03352s4.35722,0.36751 6.27952,0s7.81737,-5.49367 19.47935,-1.00829c0,0 3.97276,0.38446 5.51061,-0.64077s4.0083,-0.25631 4.0083,-0.25631a11.2798,11.2798 0 0 0 2.78384,-1.40969c0.38446,-0.51261 3.46015,0 3.46015,0a1.363,1.363 0 0 0 1.9223,-0.89707a8.38353,8.38353 0 0 1 1.79415,-2.81938s3.46015,-19.47935 9.996,-26.7841c0,0 1.9223,-1.666 1.40969,-3.71646s10.63673,-31.26948 26.01516,-27.16856z"/>
  <path id="svg_169" opacity="0.1" d="m929.50332,714.54055l16.92782,20.48024a0.51539,0.51539 0 0 0 0.10766,-0.11919c0.1269,-0.38446 1.7916,-4.74425 1.40714,-4.998c-0.38446,-0.2576 -3.32945,-6.66656 -9.22706,-9.35778a17.52193,17.52193 0 0 1 -7.24323,-6.59352l-1.97233,0.58825z"/>
  <path id="svg_170" opacity="0.1" d="m929.73788,749.98015c1.15338,0.66895 1.84928,1.065 1.84928,1.065s4.29055,-3.44478 8.56575,-6.91262c4.21757,-3.42169 8.41585,-6.86262 8.48118,-7.05485c0.1269,-0.38446 1.79165,-4.74426 1.40719,-4.998c-0.19993,-0.13455 -1.08036,-1.90693 -2.69893,-3.96379c-11.47619,-3.21409 -4.16759,4.75193 -3.19489,5.11717c0,0 -13.96749,-3.20641 -14.73641,12.01056a17.86671,17.86671 0 0 0 0.32683,4.73653z"/>
  <path id="svg_171" fill="#3f3d56" d="m943.8899,756.42756l2.43742,1.411l24.7324,0.6382a49.77439,49.77439 0 0 0 8.75418,4.2137a7.79121,7.79121 0 0 0 1.2418,0.273a56.68612,56.68612 0 0 0 6.89336,0.13071c1.89541,-0.05 3.36018,-0.13071 3.36018,-0.13071s-1.16873,-31.1913 -2.053,-34.47461c-0.42295,-1.56859 -2.49515,-1.22259 -4.54051,-0.43827a30.04831,30.04831 0 0 0 -4.429,2.24139s-10.50735,1.01883 -12.17585,1.9223c-1.66474,0.9035 -6.40517,-0.519 -9.354,0s-8.20058,-3.46782 -8.20058,-3.46782c-14.3557,-4.74041 -6.282,4.10219 -5.25555,4.48665c0,0 -13.96749,-3.20641 -14.73641,12.01056c-0.76883,15.21302 13.32556,11.1839 13.32556,11.1839z"/>
  <path id="svg_172" fill="#565387" d="m979.64476,744.3824c0.2691,6.45509 5.30168,14.47111 8.3043,18.7117c1.89541,-0.05 3.36018,-0.13071 3.36018,-0.13071s-1.16873,-31.1913 -2.053,-34.47461c-0.42295,-1.56859 -2.49515,-1.22259 -4.54051,-0.43827c-2.48356,4.65197 -5.28629,11.1263 -5.07097,16.33189z"/>
  <path id="svg_173" opacity="0.1" d="m979.64476,744.3824c0.2691,6.45509 5.30168,14.47111 8.3043,18.7117c1.89541,-0.05 3.36018,-0.13071 3.36018,-0.13071s-1.16873,-31.1913 -2.053,-34.47461c-0.42295,-1.56859 -2.49515,-1.22259 -4.54051,-0.43827c-2.48356,4.65197 -5.28629,11.1263 -5.07097,16.33189z"/>
  <path id="svg_174" opacity="0.05" d="m975.41569,745.23974c1.70313,6.23211 1.68389,13.22161 4.39821,17.45068a7.79121,7.79121 0 0 0 1.2418,0.273a56.68612,56.68612 0 0 0 6.89336,0.13071c1.89541,-0.05 3.36018,-0.13071 3.36018,-0.13071s-1.16873,-31.1913 -2.053,-34.47461c-0.42295,-1.56859 -2.49515,-1.22259 -4.54051,-0.43827a30.04831,30.04831 0 0 0 -4.429,2.24139s-7.04715,6.96642 -4.87104,14.94781z"/>
  <path id="svg_175" opacity="0.1" d="m890.0886,682.00914s12.28457,3.99287 22.69516,18.15642l-22.69516,-18.15642z"/>
  <g id="svg_176" opacity="0.1">
   <path id="svg_177" d="m989.91789,528.23248c-0.02332,0.09084 -0.04618,0.18175 -0.07429,0.27183a9.06177,9.06177 0 0 1 -0.42712,1.06912a7.8162,7.8162 0 0 1 0.50141,-1.34095z"/>
   <path id="svg_178" d="m920.412,522.01611a11.69365,11.69365 0 0 1 0.95514,-2.58938c-0.06674,0.22015 -0.13319,0.4404 -0.18622,0.66708c-0.653,2.79121 -0.11006,5.71376 0.56735,8.49915c0.34936,1.4365 0.82627,2.99581 2.07,3.79486c1.90654,1.22479 4.85894,0.16016 6.41452,1.80787c0.98992,1.04853 1.04455,2.908 2.33361,3.55426a2.60476,2.60476 0 0 0 1.52953,0.1774c3.40468,-0.48092 5.37823,-4.33027 8.64986,-5.38829a8.706,8.706 0 0 1 5.73439,0.49548a4.22866,4.22866 0 0 1 1.89743,1.21882c1.09425,1.41493 0.32589,3.50211 0.83387,5.21719c0.70453,2.379 3.54322,3.322 6.00467,3.63334s5.23405,0.48485 6.87683,2.34422a6.23221,6.23221 0 0 1 1.21965,4.95831a3.94572,3.94572 0 0 0 -0.01516,1.83581c0.67919,1.92061 4.0016,1.636 4.87255,0.1178c0.63385,-1.10476 0.44181,-2.02035 1.93826,-2.32742a6.408,6.408 0 0 1 3.13726,0.54164a23.04526,23.04526 0 0 0 8.27717,1.24257a11.03469,11.03469 0 0 0 6.49721,-1.9689a7.65632,7.65632 0 0 0 1.99378,-2.42285a8.1987,8.1987 0 0 1 -2.7627,4.34515a11.03477,11.03477 0 0 1 -6.49721,1.96891a23.04527,23.04527 0 0 1 -8.27717,-1.24258a6.408,6.408 0 0 0 -3.13726,-0.54163c-1.49645,0.30707 -1.30441,1.22265 -1.93827,2.32741c-0.871,1.5182 -4.19335,1.80282 -4.87254,-0.1178a3.94572,3.94572 0 0 1 0.01516,-1.83581a6.23225,6.23225 0 0 0 -1.21965,-4.95831c-1.64278,-1.85936 -4.41529,-2.03292 -6.87684,-2.34421s-5.30013,-1.25438 -6.00466,-3.63335c-0.508,-1.71508 0.26037,-3.80225 -0.83388,-5.21718a4.22855,4.22855 0 0 0 -1.89743,-1.21883a8.706,8.706 0 0 0 -5.73438,-0.49548c-3.27163,1.058 -5.24518,4.90737 -8.64986,5.3883a2.60484,2.60484 0 0 1 -1.52953,-0.1774c-1.28906,-0.64632 -1.34369,-2.50573 -2.33361,-3.55427c-1.55559,-1.64771 -4.508,-0.58307 -6.41452,-1.80786c-1.24377,-0.799 -1.72069,-2.35837 -2.07,-3.79486c-0.67735,-2.7854 -1.2203,-5.70795 -0.56735,-8.49916z"/>
  </g>
  <path id="svg_179" opacity="0.1" d="m991.90385,624.58797c-2.34647,3.17012 -5.02735,6.10136 -7.10494,9.45385s-3.54536,7.26729 -3.11442,11.18774c2.14914,-2.20539 3.13448,-5.2532 4.48966,-8.01835c2.29582,-4.68445 5.72778,-8.6552 8.621,-12.961c0.55419,-0.82475 4.09326,-5.57508 2.30235,-5.8021c-1.48027,-0.18764 -4.39318,5.05842 -5.19365,6.13986z"/>
  <ellipse id="svg_180" fill="#f1f1f1" ry="114" rx="121" cy="523.85568" cx="311.5"/>
  <path id="svg_181" fill="#2f2e41" d="m495.12109,663.57492l-100.10156,-29.84375a152.88041,152.88041 0 0 1 -66.51953,15.12451c-78.29932,0 -142,-58.31787 -142,-130s63.70068,-130 142,-130s142,58.31787 142,130c0,36.18652 -16.61328,70.9126 -45.62451,95.4751l70.2456,49.24414zm-100.27832,-31.9834l0.37452,0.11133l88.66162,26.43359l-62.29053,-43.66748l1.00732,-0.83691c29.17285,-24.22608 45.9043,-58.771 45.9043,-94.77637c0,-70.57959 -62.80371,-128 -140,-128s-140,57.42041 -140,128s62.80371,128 140,128a150.82312,150.82312 0 0 0 65.9917,-15.09229l0.35107,-0.17187z"/>
  <circle id="svg_182" fill="#e27114" r="11" cy="526.35568" cx="281"/>
  <circle id="svg_183" fill="#e27114" r="11" cy="526.35568" cx="313"/>
  <circle id="svg_184" fill="#e27114" r="11" cy="526.35568" cx="345"/>
  <path id="svg_185" fill="url(#a0dd3877-a1bb-4f12-811d-37917980f015)" d="m263.73079,403.90789c6.88943,4.61571 17.33471,2.41777 17.33471,2.41777s15.77905,-7.47307 20.4461,-7.47307s16.0013,-4.61571 16.0013,-4.61571l-0.38227,-3.11231l-1.15711,-9.37612c7.182,5.59741 15.16338,3.66647 19.09634,3.257c4.22255,-0.43961 26.77549,-13.84713 28.94454,-14.72632a5.73864,5.73864 0 0 0 1.97795,-1.99577l0.00441,0a50.81013,50.81013 0 0 0 3.81812,-6.9763l-0.00261,0.0007c1.41411,-1.24256 2.44461,-2.24163 2.37169,-2.458a15.5346,15.5346 0 0 1 1.38131,-3.69068a18.08251,18.08251 0 0 0 6.84156,-2.46358a6.21267,6.21267 0 0 0 0.94675,-0.95831a6.08316,6.08316 0 0 0 1.27566,-3.8772s22.00176,-22.19931 19.11266,-31.43072s7.11168,-9.45122 7.11168,-9.45122s15.33458,-6.59387 17.46808,-10.5502c1.31567,-2.43534 12.81436,-7.77635 21.47282,-11.53047q0.53985,-0.23414 1.06362,-0.45941c3.36558,7.36291 20.418,1.69805 23.7784,-1.41764c3.55583,-3.29693 14.00111,-4.83549 14.00111,-4.83549s0.4445,-43.07994 3.77811,-48.57482c1.58234,-2.60679 1.96459,-11.11289 1.92455,-19.32885q-0.00183,-0.4382 -0.00541,-0.87469c4.66932,-0.91048 15.7729,-3.0211 20.93224,-3.5344c3.2699,-0.32531 6.6753,-2.36249 9.288,-4.34327c0.19949,0.24775 0.30763,0.387 0.30763,0.387a6.41832,6.41832 0 0 0 2.84333,0.46754a4.3998,4.3998 0 0 0 2.49044,-0.46754c2.00016,-1.099 9.33409,-3.29694 12.001,-4.39591s-0.44449,-9.01161 -2.44466,-10.55019s-3.3336,-3.51671 -2.22238,-4.39591s-2.66689,-3.07713 -4.8893,-3.51671s-8.88959,-3.51674 -8.88959,-3.51674s-2.44466,-5.05529 -6.445,-5.05529s-9.33409,-3.95633 -9.33409,-3.95633c-0.22225,-1.75835 -4.4448,-1.97816 -4.4448,-1.97816s-16.0013,-12.30855 -18.66818,-10.77s-10.00082,-2.41777 -10.00082,-2.41777s-8.99484,1.00687 -11.11162,-0.64911l-0.00038,-0.01028a2.52788,2.52788 0 0 0 -0.53371,-1.49224c-0.47943,-1.48529 -2.80339,-3.525 -5.057,-5.22305a19.82288,19.82288 0 0 0 0.257,-3.17549c0,-0.46158 -0.01779,-0.92316 -0.04887,-1.37592c-0.00521,-0.07632 -0.01506,-0.15132 -0.02114,-0.22738q0.15711,-1.54751 0.3142,-3.095a6.41531,6.41531 0 0 1 0.77661,-2.9119c0.37515,-0.5782 0.92722,-1.03526 1.34483,-1.587a4.41542,4.41542 0 0 0 0.27309,-0.41125c0.02275,-0.03826 0.04341,-0.07727 0.06491,-0.116q0.09066,-0.16333 0.167,-0.332c0.01708,-0.03783 0.03491,-0.07536 0.05094,-0.11359a5.01031,5.01031 0 0 0 0.28741,-0.93644c0.00514,-0.02516 0.00927,-0.05051 0.014,-0.07574q0.04155,-0.21792 0.06654,-0.43991l0.0071,-0.06134a9.46325,9.46325 0 0 0 -0.50024,-3.77415c-0.66667,-2.07465 -1.70933,-4.08418 -1.82071,-6.24946a19.26408,19.26408 0 0 0 -0.11265,-3.22143c-0.53482,-2.4 -3.008,-3.93276 -5.38446,-4.92845c-3.28537,-1.37655 -4.94189,-2.88152 -7.58158,-4.92865c-2.24345,-1.73982 -5.94288,-0.86628 -8.76718,-0.685c-6.44729,0.41382 -12.814,2.35423 -18.87713,4.36323a18.76623,18.76623 0 0 0 -6.59492,3.27421a7.26655,7.26655 0 0 0 -2.41367,4.07243l-0.00015,-0.0006l-0.00046,0.00378a5.10726,5.10726 0 0 0 -0.07346,1.11014c0.00143,0.03305 0.0046,0.066 0.00671,0.099q0.01414,0.21322 0.048,0.42536c0.00728,0.04624 0.01374,0.09243 0.02247,0.13854a4.53158,4.53158 0 0 0 0.12321,0.5033l0.00321,0.01321c0.25542,0.80995 0.73115,1.54456 1.00625,2.34875a5.11112,5.11112 0 0 1 0.151,0.54279c0.00447,0.01958 0.00787,0.03925 0.01213,0.05887c0.03726,0.17594 0.06764,0.35253 0.08935,0.52986l0.00007,-0.001c0.245,1.999 -0.49155,4.08584 -0.81872,6.12252c-0.04624,0.28786 -0.07676,0.58145 -0.09989,0.87681l-0.00013,-0.00113l-0.00053,0.01045a10.48144,10.48144 0 0 0 0.30737,3.5095l0.00961,0.03881c0.03868,0.14094 0.08359,0.279 0.12892,0.41716c0.01953,0.05972 0.03743,0.12013 0.05824,0.17927c0.04147,0.1176 0.08784,0.23246 0.13434,0.34751c0.031,0.077 0.06146,0.15415 0.09478,0.22991c0.04519,0.10247 0.094,0.20255 0.14335,0.30253c0.04172,0.0846 0.084,0.16869 0.12871,0.25134c0.04936,0.091 0.10114,0.18016 0.15423,0.26865q0.07817,0.1305 0.16168,0.25693c0.05375,0.08126 0.1088,0.16136 0.166,0.24c0.06282,0.08659 0.12859,0.17061 0.19559,0.25387c0.05792,0.07189 0.11595,0.14341 0.177,0.21268c0.07463,0.08473 0.15341,0.16571 0.23279,0.2463c0.06123,0.06209 0.12142,0.12495 0.18548,0.18444c0.08883,0.08256 0.18305,0.15988 0.27745,0.23718c0.06236,0.05107 0.12252,0.1041 0.1873,0.15276c0.11041,0.08293 0.22753,0.15892 0.34512,0.23455c0.05609,0.03609 0.10892,0.07548 0.16666,0.10983a5.8,5.8 0 0 0 0.56029,0.2947c1.27563,0.58151 2.88334,0.78939 3.65572,1.90958a2.50137,2.50137 0 0 1 0.3743,0.8755c-0.00087,0.076 -0.00579,0.15091 -0.00579,0.22708l0,0.19341c0.00888,0.65058 0.04445,1.29239 0.11112,1.92541a7.36562,7.36562 0 0 0 0.05778,1.04182a3.00671,3.00671 0 0 0 0.21778,0.75608a19.93744,19.93744 0 0 0 6.74032,11.32c0.06427,0.33844 0.14066,0.73626 0.22766,1.18205a22.20651,22.20651 0 0 1 -6.46569,3.38924c-5.33377,1.56052 -12.88992,8.76545 -12.88992,8.76545s-3.75589,27.03484 -4.65375,30.33178c-0.90227,3.29694 -1.569,16.04507 -1.569,16.04507s-0.889,5.2751 -2.22241,7.91265c-0.94252,1.8602 -0.77353,9.84638 1.86138,14.6996a12.41327,12.41327 0 0 1 -1.63913,2.66424c-5.33377,6.15427 -21.335,5.93449 -26.66881,5.93449c-4.91363,0 -6.42882,2.978 -6.63756,3.44817c-9.7636,2.773 -41.392,11.80061 -45.14439,13.44091c-4.4448,1.943 -6.88946,21.13554 -6.88946,21.13554s-9.33406,31.87037 -8.88959,36.064s-3.11136,15.80772 -3.11136,15.80772s0,13.14817 -1.51126,14.04054a0.11842,0.11842 0 0 1 -0.04443,0.02637c-1.55569,0.65939 -1.33344,7.03345 -1.33344,7.03345s1.14334,0.33087 2.92958,0.78306c-0.47386,3.2237 -2.22246,7.72895 -3.60026,10.92737c-0.69215,-0.875 -1.36714,-1.243 -1.774,-0.2195c-1.1112,2.79579 -17.77922,22.5774 -22.00177,22.5774c-2.01351,0 -5.3382,1.64846 -7.525,3.87279c-2.39574,2.44413 -3.41358,5.5828 0.19115,7.99616zm76.45059,-114.51349c18.89041,1.75838 39.11426,-1.34075 39.11426,-1.34075s-1.55567,5.51688 -2.88911,7.71482s-5.11154,14.72632 -5.11154,17.36387s-6.00047,25.27649 -7.77841,26.37546a6.57939,6.57939 0 0 0 -1.93349,2.79578a26.23007,26.23007 0 0 0 -1.17786,3.35848c0.026,0.57441 0.07944,1.11415 0.153,1.6278c-1.32818,1.21827 -2.73212,2.49151 -3.98449,3.62172l0.00007,-0.00079s-7.94731,4.42227 -10.61419,6.84s-15.11233,5.38058 -15.11233,5.38058a77.13563,77.13563 0 0 0 -8.94294,4.563c-3.856,2.32666 -7.71645,5.278 -8.72229,8.19543c0.43528,-4.91188 1.14648,-10.82894 1.621,-14.59281c0.242,-0.00573 0.47917,-0.0152 0.7097,-0.02944c6.22715,-0.38683 5.29819,-6.33013 4.96926,-7.80274c-0.04445,-0.211 -0.08,-0.32969 -0.08,-0.32969c4.44479,-4.83551 14.4456,-40.882 13.11216,-44.8383s1.1112,-7.473 1.64013,-7.473s1.249,-4.39593 0.13779,-6.81367s4.88928,-4.61575 4.88928,-4.61575zm152.76127,-96.9656c-0.39338,0.0948 -0.78663,0.1897 -1.17827,0.291c-0.01,-0.16589 -0.01522,-0.25526 -0.01522,-0.25526s0.44355,-0.00043 1.19349,-0.03574zm-64.57426,-33.166c-0.17794,0.22008 -0.35987,0.43569 -0.54885,0.64128c-0.07461,0.08116 -0.15162,0.15783 -0.22751,0.2367c-0.00585,-0.41274 -0.00547,-0.82235 -0.00092,-1.21963q0.38424,0.17874 0.77728,0.3416l0,0.00005zm-22.26315,42.6424l0.08145,1.23706s-0.12136,0.75333 -0.34545,2.04682l0.264,-3.28388zm102.13223,-12.2838l-3.87621,0.6684c0.55,-0.2075 1.09064,-0.43352 1.61379,-0.68254a3.69929,3.69929 0 0 1 1.236,-0.33605a6.73843,6.73843 0 0 1 1.446,0.30958a3.03482,3.03482 0 0 0 -0.41958,0.04056l0,0.00005z"/>
  <path id="svg_186" fill="#be6f72" d="m377.0849,348.31078s-4.4662,9.24142 -4.24807,9.8958s-9.59754,8.50691 -9.59754,8.50691l-10.68817,-7.6344l1.09063,-5.235s11.99692,-10.81033 12.86943,-12.058s10.57372,6.52469 10.57372,6.52469z"/>
  <path id="svg_187" fill="#3f3d56" d="m316.12409,379.58292c7.41628,7.19816 16.14132,5.0169 20.28571,4.58064s26.27981,-13.74193 28.40872,-14.61443a5.66267,5.66267 0 0 0 1.94132,-1.9806l0.00434,0a50.60882,50.60882 0 0 0 3.74742,-6.92331c-0.14834,0.03927 -7.40318,2.11147 -9.23544,-0.00437c0,0 -3.05377,-3.743 -3.70814,-3.743s-0.05235,-6.57 -0.05235,-6.57s-7.80019,4.38869 -10.4177,6.78807s-14.83256,5.33976 -14.83256,5.33976a75.37544,75.37544 0 0 0 -8.77738,4.5283c-5.78471,3.52925 -11.58251,8.5069 -7.36394,12.59894z"/>
  <path id="svg_188" opacity="0.1" d="m316.12409,379.58292c7.41628,7.19816 16.14132,5.0169 20.28571,4.58064s26.27981,-13.74193 28.40872,-14.61443a5.66267,5.66267 0 0 0 1.94132,-1.9806c-2.58263,-1.54 -19.44374,9.17875 -24.164,11.14189c-4.71588,1.96313 -16.65609,0.8725 -23.418,-1.96314c-3.37659,-1.41345 0.04361,-5.76289 4.31017,-9.76331c-5.78469,3.52926 -11.58249,8.50691 -7.36392,12.59895z"/>
  <path id="svg_189" fill="#be6f72" d="m316.9966,356.89783s-3.1068,23.33947 -2.31684,26.39323s-19.49575,-10.47 -19.49575,-10.47s7.09871,-14.6253 5.01689,-17.98551s16.7957,2.06228 16.7957,2.06228z"/>
  <path id="svg_190" fill="#3f3d56" d="m297.58339,357.33408s12.6513,3.70814 19.63133,3.27189c6.1119,-0.38391 5.20012,-6.282 4.8773,-7.74347c-0.04365,-0.20942 -0.07853,-0.32719 -0.07853,-0.32719c4.36252,-4.79877 14.17819,-40.57142 12.86943,-44.49769s1.09063,-7.41628 1.60977,-7.41628s1.22587,-4.36251 0.13524,-6.7619s4.79877,-4.58064 4.79877,-4.58064c18.5407,1.745 38.39016,-1.33057 38.39016,-1.33057s-1.52688,5.475 -2.83564,7.65622s-5.0169,14.61443 -5.0169,17.23194s-5.88939,25.08448 -7.6344,26.17511a6.52966,6.52966 0 0 0 -1.89771,2.77456a26.226,26.226 0 0 0 -1.156,3.333c0.65437,14.61443 17.23194,8.94316 19.63133,6.98a5.94628,5.94628 0 0 0 2.18126,-4.79877s21.59446,-22.03072 18.75882,-31.192s6.98,-9.37941 6.98,-9.37941s15.05069,-6.54378 17.14469,-10.47c1.29132,-2.41686 12.57715,-7.7173 21.07533,-11.44291c5.32227,-2.33393 9.54956,-4.044 9.54956,-4.044l-3.538,-12.68621l-2.78766,-9.99889l-5.24812,-1.97186l-16.78259,-6.31692l-30.13192,-4.14439l-2.76148,0.35773l-29.27248,3.78666s-42.75268,12.215 -47.1152,14.14327s-6.7619,20.975 -6.7619,20.975s-9.16129,31.62825 -8.725,35.79009s-3.05376,15.68762 -3.05376,15.68762s0,13.04828 -1.48327,13.93389a0.11649,0.11649 0 0 1 -0.04361,0.02617c-1.52694,0.6543 -1.30882,6.97995 -1.30882,6.97995z"/>
  <path id="svg_191" opacity="0.1" d="m341.4267,289.2788c18.5407,1.745 38.39016,-1.33057 38.39016,-1.33057c1.30875,-4.12258 19.6444,-15.46513 19.6444,-15.46513c-15.04195,-3.70814 -58.03456,16.7957 -58.03456,16.7957z"/>
  <path id="svg_192" fill="#444053" d="m361.27616,345.11903c0.65437,14.61443 17.23194,8.94316 19.63133,6.98a6.13275,6.13275 0 0 0 0.92922,-0.951c-5.79344,2.13325 -16.0628,3.7823 -19.4045,-9.362a26.226,26.226 0 0 0 -1.15605,3.333z"/>
  <path id="svg_193" fill="#444053" d="m297.58339,357.33408s12.6513,3.70814 19.63133,3.27189c6.1119,-0.38391 5.20012,-6.282 4.8773,-7.74347c-6.40418,-0.20069 -17.43264,-0.80272 -23.15626,-2.53462a0.11649,0.11649 0 0 1 -0.04361,0.02617c-1.52688,0.65438 -1.30876,6.98003 -1.30876,6.98003z"/>
  <path id="svg_194" opacity="0.1" d="m361.27616,345.11903c0.65437,14.61443 17.23194,8.94316 19.63133,6.98a6.13275,6.13275 0 0 0 0.92922,-0.951c-5.79344,2.13325 -16.0628,3.7823 -19.4045,-9.362a26.226,26.226 0 0 0 -1.15605,3.333z"/>
  <path id="svg_195" opacity="0.1" d="m297.58339,357.33408s12.6513,3.70814 19.63133,3.27189c6.1119,-0.38391 5.20012,-6.282 4.8773,-7.74347c-6.40418,-0.20069 -17.43264,-0.80272 -23.15626,-2.53462a0.11649,0.11649 0 0 1 -0.04361,0.02617c-1.52688,0.65438 -1.30876,6.98003 -1.30876,6.98003z"/>
  <path id="svg_196" fill="#3f3d56" d="m266.39139,402.92239c6.7619,4.58065 17.01382,2.39939 17.01382,2.39939s15.48694,-7.41628 20.06758,-7.41628s15.70507,-4.58065 15.70507,-4.58065l-0.37517,-3.08867l-1.80609,-14.79765s-16.98765,-0.43625 -17.6682,-1.96313c0,0 -3.05376,-7.51227 -4.14439,-4.73769s-17.45008,22.40588 -21.59447,22.40588c-1.97623,0 -5.23939,1.63595 -7.38574,3.84338c-2.3514,2.42556 -3.35041,5.5404 0.18759,7.93542z"/>
  <path id="svg_197" opacity="0.1" d="m325.06726,274.00998s14.17818,8.94317 10.25191,10.9063s-10.25191,-10.9063 -10.25191,-10.9063z"/>
  <path id="svg_198" opacity="0.1" d="m319.17786,291.24193s12.215,11.59635 7.6344,11.9057s-7.6344,-11.9057 -7.6344,-11.9057z"/>
  <path id="svg_199" opacity="0.1" d="m306.0903,328.10521s6.2012,11.65663 3.864,13.68085s-3.864,-13.68085 -3.864,-13.68085z"/>
  <path id="svg_200" opacity="0.1" d="m374.36371,339.88401c-2.18126,2.18126 20.722,-7.19816 15.48694,-7.63441s-15.48694,7.63441 -15.48694,7.63441z"/>
  <path id="svg_201" fill="#be6f72" d="m420.17015,176.28958s0.25737,-0.03928 0.72853,-0.10906c2.7135,-0.41445 12.54661,-1.95877 21.36761,-3.87392c2.15072,-0.46679 4.236,-0.95539 6.1468,-1.45709c6.75753,-1.77119 11.2902,-3.682 8.40221,-5.2481c-3.82594,-2.07656 -5.84142,-5.85015 -6.90587,-9.09587c-0.10033,-0.31845 -0.19632,-0.6282 -0.28358,-0.93355a23.97447,23.97447 0 0 1 -0.88121,-5.02127s-24.64822,-8.725 -19.84945,0c2.35574,4.27963 0.77214,7.774 -1.45273,10.22138a19.14317,19.14317 0 0 1 -5.30918,3.95681l-1.96313,11.56067z"/>
  <path id="svg_202" opacity="0.1" d="m446.56338,169.52768s-8.81665,6.32565 -17.82307,1.09063s-20.78521,46.24269 -20.78521,46.24269l-12.21505,30.10137s-7.91362,6.54378 1.93259,9.37942s31.69368,-2.83564 37.23845,5.45314s16.04969,9.59754 17.12288,9.59754s5.22989,-31.192 5.22989,-31.192l1.07832,-45.15206l-11.7788,-25.52073z"/>
  <path id="svg_203" fill="#f3f5f9" d="m398.10889,254.59678c9.84621,2.83564 31.69368,-2.83564 37.23845,5.45315a21.30059,21.30059 0 0 0 9.38378,7.55151a24.57155,24.57155 0 0 0 7.7391,2.046c0.144,0 0.349,-0.57149 0.589,-1.56179c1.53559,-6.31255 4.6417,-29.63022 4.6417,-29.63022l1.07755,-45.15206l-10.36534,-22.45389l-1.41345,-3.06684a18.78446,18.78446 0 0 1 -4.49339,2.18562a15.81483,15.81483 0 0 1 -13.33186,-1.095c-2.64371,-1.53562 -5.523,1.81043 -8.27571,7.30722c-6.62666,13.23586 -12.50733,38.93547 -12.50733,38.93547l-12.215,30.10137a10.58255,10.58255 0 0 0 -0.82889,0.794c-1.73636,1.82792 -4.98644,6.35622 2.76139,8.58546z"/>
  <path id="svg_204" opacity="0.1" d="m445.0234,256.11493a56.78334,56.78334 0 0 0 -0.29228,11.48651a134.57428,134.57428 0 0 0 2.05039,16.22424a6.20523,6.20523 0 0 0 0.26611,0.99027c5.32227,-2.33393 9.54956,-4.044 9.54956,-4.044l-3.538,-12.68621c1.53559,-6.31255 4.6417,-29.63022 4.6417,-29.63022l1.07755,-45.15206l-10.36534,-22.45389c6.75753,-1.77119 11.2902,-3.682 8.40221,-5.2481c-4.19674,-2.27725 -6.21659,-6.60049 -7.18945,-10.02942a36.54022,36.54022 0 0 1 -6.19912,6.67028c-0.08725,0.07415 -0.13523,0.11343 -0.13523,0.11343l-0.78525,7.61259l-0.24,2.33831l-0.50168,4.85548s2.39939,57.36712 4.1444,60.639s0.8725,9.59754 -0.65438,17.01382c-0.08722,0.41872 -0.16137,0.85064 -0.23119,1.29997z"/>
  <path id="svg_205" fill="#67647e" d="m446.12713,253.9424c-1.52688,7.41628 -0.21812,19.63133 1.52688,29.01075s20.28571,3.27188 23.77573,0s13.74193,-4.79877 13.74193,-4.79877s0.43625,-42.75268 3.70814,-48.20583c1.553,-2.587 1.92822,-11.02846 1.889,-19.182c-0.03051,-7.32466 -0.39261,-14.41375 -0.52785,-16.81751c-0.03491,-0.55838 -0.05235,-0.86377 -0.05235,-0.86377s14.17819,-23.99385 13.96006,-25.73885s-4.36252,-1.96314 -4.36252,-1.96314s-15.70506,-12.21505 -18.32257,-10.68817s-9.81567,-2.39938 -9.81567,-2.39938s-9.122,1.03391 -11.00665,-0.72419a0.95836,0.95836 0 0 1 -0.33589,-0.80269c0.21375,-2.792 -9.29653,-8.75558 -9.58884,-8.9388c8.014,7.21123 -4.94708,18.32258 -6.41724,19.53971c-0.08726,0.07416 -0.13524,0.11343 -0.13524,0.11343l-1.52688,14.80639s2.39938,57.36711 4.14439,60.639s0.87244,9.59754 -0.65443,17.01382z"/>
  <circle id="svg_206" fill="#444053" r="1.09063" cy="191.6252" cx="446.97128"/>
  <path id="svg_207" opacity="0.1" d="m444.73549,162.24227l6.62666,6.4129l9.71531,-16.21113a0.95833,0.95833 0 0 1 -0.33589,-0.80269c0.21376,-2.792 -9.29653,-8.75557 -9.58884,-8.93879c8.01397,7.21123 -4.94708,18.32257 -6.41724,19.53971z"/>
  <circle id="svg_208" opacity="0.1" r="1.09063" cy="226.52535" cx="449.15254"/>
  <circle id="svg_209" fill="#444053" r="1.09063" cy="226.0891" cx="449.15254"/>
  <path id="svg_210" fill="#67647e" d="m444.29924,161.36976l6.62666,6.41291l9.71531,-16.21113a0.95836,0.95836 0 0 1 -0.33589,-0.80269c0.21375,-2.792 -9.29653,-8.75558 -9.58884,-8.9388c8.01397,7.21123 -4.94708,18.32263 -6.41724,19.53971z"/>
  <rect id="svg_211" fill="#3f3d56" transform="rotate(-178.6945343017578 912.4819946289064,486.5361328125) " rx="1.69947" height="32.07586" width="15.17956" y="739.73102" x="1378.2616"/>
  <rect id="svg_212" opacity="0.1" transform="rotate(-178.6945343017578 912.4819946289064,486.5361328125) " rx="1.69947" height="32.07586" width="15.17956" y="739.73102" x="1378.2616"/>
  <rect id="svg_213" fill="#3f3d56" transform="matrix(-0.99974,-0.02278,0.02278,-0.99974,912.6276,487.95743) " rx="1.69947" height="32.07586" width="15.17956" y="253.90471" x="465.8605"/>
  <circle id="svg_214" fill="#67647e" r="2.38537" cy="200.64197" cx="445.85689"/>
  <path id="svg_215" opacity="0.1" d="m363.67554,251.97927c5.45315,2.39938 41.2258,-3.92627 46.46082,-5.45315s12.86943,-13.30568 9.16129,-21.81259s1.30875,-16.79569 1.30875,-16.79569s7.85253,-16.7957 9.59754,-20.06759s5.38333,-12.79964 5.8894,-14.39631a1.29611,1.29611 0 0 0 -0.30975,-0.999c-1.41782,-2.15943 -6.8884,-5.981 -6.8884,-5.981c-1.54,0.55839 -1.73194,-3.85211 -1.67086,-7.09345c0.03491,-1.81483 0.144,-3.26316 0.144,-3.26316s-0.72419,0.73727 -1.90641,1.74064c-0.43189,0.36207 -0.92486,0.76344 -1.47017,1.17789a22.5859,22.5859 0 0 1 -6.87533,3.75612c-5.235,1.54869 -12.65131,8.69886 -12.65131,8.69886l2.18126,33.49977s-5.01689,31.50175 -10.25191,37.60927s-20.94009,5.8894 -26.17511,5.8894s-6.54381,3.48999 -6.54381,3.48999z"/>
  <path id="svg_216" fill="#67647e" d="m363.23929,250.67051c5.45315,2.39939 41.22579,-3.92626 46.46082,-5.45315s12.86942,-13.30568 9.16128,-21.81259s1.30876,-16.79569 1.30876,-16.79569s7.85253,-16.79569 9.59754,-20.06758s5.38333,-12.79964 5.8894,-14.39631a1.29612,1.29612 0 0 0 -0.30975,-0.999c-1.41782,-2.15942 -6.88841,-5.981 -6.88841,-5.981c-1.54,0.55839 -1.73193,-3.85211 -1.67085,-7.09346c0.03491,-1.81482 0.144,-3.26316 0.144,-3.26316s-0.72419,0.73727 -1.90642,1.74065c-0.43188,0.36206 -0.92485,0.76344 -1.47016,1.17788a22.58581,22.58581 0 0 1 -6.87533,3.75612c-5.235,1.54869 -12.65131,8.69886 -12.65131,8.69886l2.18126,33.49977s-5.01689,31.50175 -10.25192,37.60928s-20.94008,5.8894 -26.1751,5.8894s-6.54381,3.48998 -6.54381,3.48998z"/>
  <path id="svg_217" opacity="0.1" d="m422.56953,155.68105s0.205,1.15168 0.54969,2.91852c1.17351,5.98973 3.97424,19.06855 5.99409,18.56251c1.44836,-0.36209 3.89573,-2.92726 5.79778,-5.14342c-1.41782,-2.15943 -6.88841,-5.981 -6.88841,-5.981c-1.54,0.55839 -1.73193,-3.85211 -1.67085,-7.09346l-1.76245,-1.52251l-2.01985,-1.74064z"/>
  <path id="svg_218" fill="#67647e" d="m423.00579,154.80854s0.205,1.15169 0.54968,2.91853c1.17352,5.98973 3.97425,19.06855 5.99409,18.56251c1.44836,-0.3621 3.89573,-2.92726 5.79778,-5.14343c-1.41782,-2.15942 -6.88841,-5.981 -6.88841,-5.981c-1.54,0.55839 -1.73193,-3.85211 -1.67085,-7.09346l-1.76245,-1.52251l-2.01984,-1.74064z"/>
  <path id="svg_219" fill="#be6f72" d="m409.04573,219.04226s10.90629,-2.18126 13.96006,-6.98s23.82807,-8.94316 21.29345,-3.92627s-21.29345,21.43226 -21.29345,21.43226l-8.12738,11.64l-10.84958,-2.75275l-4.5689,-8.88724l9.5858,-10.526z"/>
  <path id="svg_220" opacity="0.1" d="m434.84941,231.48675s-10.56167,3.92626 -12.1518,9.16128s12.1518,-9.16128 12.1518,-9.16128z"/>
  <path id="svg_221" opacity="0.1" d="m441.32836,237.58296s0.961,5.45 -12.27987,5.0153l12.27987,-5.0153z"/>
  <path id="svg_222" opacity="0.1" d="m498.47735,167.78268l4.79877,-0.43625s5.235,3.92626 9.16129,3.92626s6.32565,5.0169 6.32565,5.0169s6.54377,3.05376 8.725,3.49s5.8894,2.61751 4.79877,3.49s0.21813,2.83564 2.18126,4.36252s5.0169,9.37941 2.39939,10.47s-9.81567,3.27189 -11.7788,4.36252a5.409,5.409 0 0 1 -4.36252,0s-11.55566,-15.05063 -17.44755,-12.21495s-13.96255,2.83563 -13.96255,2.83563l-6.32565,-13.30568l15.48694,-11.99695z"/>
  <path id="svg_223" fill="#67647e" d="m398.10889,239.5548a5.83122,5.83122 0 0 0 4.06587,2.82693a30.82308,30.82308 0 0 0 12.70365,-1.17352s-21.974,-6.98 -0.81579,-23.9546l-5.67127,0l-1.889,-0.71543l0.86379,-4.51993l1.24332,-40.74557l-4.58065,-1.09063s-3.68633,26.82949 -4.56757,30.10138c-0.88557,3.27189 -1.53995,15.92319 -1.53995,15.92319s-0.87251,5.235 -2.18126,7.85253c-0.98591,1.96753 -0.73288,10.84085 2.36886,15.49565z"/>
  <path id="svg_224" opacity="0.1" d="m398.9814,239.5548a5.83122,5.83122 0 0 0 4.06587,2.82693a30.82312,30.82312 0 0 0 12.70365,-1.17352s-21.974,-6.98 -0.81579,-23.9546l-5.67128,0l-1.889,-0.71543c-3.10608,5.50112 -7.99648,15.29062 -8.39345,23.01662z"/>
  <path id="svg_225" fill="none" d="m398.10889,239.5548a5.83122,5.83122 0 0 0 4.06587,2.82693a30.82308,30.82308 0 0 0 12.70365,-1.17352s-21.974,-6.98 -0.81579,-23.9546l-5.67127,0l-1.889,-0.71543c-3.10609,5.50112 -7.99648,15.29062 -8.39346,23.01662z"/>
  <path id="svg_226" fill="#67647e" d="m398.10889,239.5548a5.83122,5.83122 0 0 0 4.06587,2.82693a30.82308,30.82308 0 0 0 12.70365,-1.17352s-21.974,-6.98 -0.81579,-23.9546l-5.67127,0l-1.889,-0.71543c-3.10609,5.50112 -7.99648,15.29062 -8.39346,23.01662z"/>
  <path id="svg_227" opacity="0.1" d="m427.44246,160.7721a19.85073,19.85073 0 0 0 22.467,-4.26656c-0.10033,-0.31845 -0.19632,-0.6282 -0.28358,-0.93355a23.97447,23.97447 0 0 1 -0.88121,-5.02127s-24.64822,-8.725 -19.84945,0c2.35571,4.27963 0.77211,7.77401 -1.45276,10.22138z"/>
  <path id="svg_228" fill="#be6f72" d="m415.80763,141.82568l0,0.19195c0.00871,0.64564 0.04362,1.28258 0.10906,1.91078c0.06543,0.602 0.157,1.1997 0.27048,1.78426a19.85565,19.85565 0 0 0 38.24619,2.56516c0.13087,-0.3839 0.253,-0.77217 0.35773,-1.16478a19.7563,19.7563 0 0 0 0.71546,-5.28737c0,-0.45806 -0.01747,-0.91615 -0.048,-1.36547a19.849,19.849 0 0 0 -39.65092,1.36547z"/>
  <path id="svg_229" opacity="0.1" d="m415.80763,142.01768a8.60057,8.60057 0 0 1 0.10906,1.91078a7.391,7.391 0 0 0 0.05672,1.03392a3.0087,3.0087 0 0 0 0.21376,0.75034c0.80269,1.88461 3.4202,3.10174 5.14776,1.889a5.58954,5.58954 0 0 0 1.54869,-2.02859c1.83227,-3.40712 4.38433,-7.329 8.39785,-7.39444c1.71013,-0.03054 3.31987,0.68926 4.97328,1.11243c1.649,0.41879 3.61652,0.47114 4.85112,-0.65437c0.94666,-0.8638 1.396,-2.34267 2.66986,-2.64805c1.29131,-0.30975 2.443,0.86377 3.02759,2.00674c0.58459,1.13861 1.047,2.48664 2.22924,3.07557c0.5235,0.26177 1.13861,0.33593 1.65341,0.61513c2.37321,1.3 1.28258,5.85449 3.74739,6.59176a1.86024,1.86024 0 0 0 0.23556,0.05672c0.03928,-0.40571 0.08289,-0.81579 0.12217,-1.2215q0.33373,-3.32425 0.66747,-6.65284a19.849,19.849 0 0 0 -39.65093,1.3654l0,0.192z"/>
  <path id="svg_230" fill="#3f3d56" d="m451.06884,112.19555c2.33242,0.98814 4.75987,2.50926 5.28477,4.891a19.32963,19.32963 0 0 1 0.11057,3.197c0.10932,2.14883 1.13267,4.14311 1.787,6.202s0.888,4.4619 -0.42283,6.21287c-0.40988,0.54751 -0.95172,1.0011 -1.31992,1.57491a6.42129,6.42129 0 0 0 -0.76223,2.88978l-1.078,10.73665c-2.76865,-0.51567 -1.53625,-5.31264 -3.98424,-6.64944c-0.51409,-0.28073 -1.12684,-0.35586 -1.65182,-0.61761c-1.181,-0.58886 -1.64323,-1.93432 -2.22932,-3.0757s-1.7365,-2.3132 -3.02922,-2.00416c-1.27017,0.30365 -1.71961,1.78592 -2.66642,2.64851c-1.23616,1.1262 -3.2026,1.07373 -4.85413,0.6523s-3.26166,-1.142 -4.971,-1.11318c-4.01462,0.06765 -6.56727,3.98763 -8.39966,7.39454a5.54876,5.54876 0 0 1 -1.54828,2.03166c-1.94868,1.37067 -5.027,-0.35486 -5.36141,-2.64178c-0.18718,-1.27986 0.21218,-2.71 -0.52657,-3.79337c-0.75808,-1.11169 -2.336,-1.318 -3.588,-1.89506c-3.18739,-1.46911 -4.17609,-5.449 -3.64581,-8.78683c0.38219,-2.40564 1.33927,-4.88233 0.55589,-7.1979c-0.27,-0.7981 -0.73693,-1.52713 -0.98763,-2.33094c-0.70022,-2.24516 0.44172,-4.72289 2.24167,-6.3168a18.34006,18.34006 0 0 1 6.47283,-3.24931c5.95084,-1.99374 12.19972,-3.91941 18.52767,-4.3301c2.772,-0.17991 6.403,-1.04682 8.60487,0.67981c2.5908,2.03153 4.21666,3.52507 7.44122,4.89115z"/>
  <circle id="svg_231" opacity="0.1" r="1.09063" cy="174.39326" cx="445.88065"/>
  <circle id="svg_232" fill="#444053" r="1.09063" cy="173.95701" cx="445.88065"/>
  <circle id="svg_233" opacity="0.1" r="1.09063" cy="242.88479" cx="452.86068"/>
  <circle id="svg_234" fill="#444053" r="1.09063" cy="242.44854" cx="452.86068"/>
  <circle id="svg_235" opacity="0.1" r="1.09063" cy="260.98924" cx="449.15254"/>
  <circle id="svg_236" fill="#444053" r="1.09063" cy="260.55299" cx="449.15254"/>
  <path id="svg_237" opacity="0.1" d="m411.66324,191.6252s-2.39939,16.29264 0,19.12827s0,-19.12827 0,-19.12827z"/>
  <path id="svg_238" opacity="0.1" d="m482.99041,221.87789s4.58064,9.868 0,19.33032s-7.41628,13.30407 -5.8894,19.34478s5.8894,-38.6751 5.8894,-38.6751z"/>
  <path id="svg_239" opacity="0.1" d="m266.39139,402.92239c6.7619,4.58065 17.01382,2.39939 17.01382,2.39939s15.48694,-7.41628 20.06758,-7.41628s15.70507,-4.58065 15.70507,-4.58065l-0.37517,-3.08867c-4.51959,0.87251 -14.79768,2.9447 -15.98428,3.96118c-1.52688,1.30875 -20.28571,7.6344 -20.28571,7.6344s-12.77346,-1.59669 -16.3289,-6.84479c-2.3514,2.42556 -3.35041,5.5404 0.18759,7.93542z"/>
  <g id="svg_240" opacity="0.1">
   <path id="svg_241" d="m456.464,118.53852c-0.012,-0.23632 -0.012,-0.47351 -0.0085,-0.71088c0.01931,0.271 0.02288,0.54358 0.01931,0.817c-0.00235,-0.03559 -0.00903,-0.07044 -0.01081,-0.10612z"/>
   <path id="svg_242" d="m411.85791,137.09141c1.252,0.57708 2.82994,0.78339 3.588,1.89508c0.73876,1.08333 0.33941,2.51351 0.52657,3.79337c0.33446,2.28691 3.41274,4.01243 5.36142,2.64177a5.54859,5.54859 0 0 0 1.54826,-2.03165c1.8324,-3.40691 4.38507,-7.32689 8.39968,-7.39455c1.70936,-0.02881 3.3195,0.69176 4.971,1.11318s3.618,0.47391 4.85413,-0.6523c0.94682,-0.8626 1.39625,-2.34485 2.66642,-2.6485c1.29273,-0.30906 2.44314,0.86278 3.02924,2.00416s1.0483,2.48683 2.2293,3.07568c0.525,0.26177 1.13773,0.33691 1.65181,0.61763c2.448,1.3368 1.21562,6.13376 3.98426,6.64943q0.53895,-5.36834 1.07795,-10.73665a6.42121,6.42121 0 0 1 0.76222,-2.88977c0.36822,-0.57381 0.91005,-1.02742 1.31994,-1.57492a4.8039,4.8039 0 0 0 0.89561,-2.30853a5.58033,5.58033 0 0 1 -0.89561,4.05354c-0.40989,0.5475 -0.95172,1.00111 -1.31994,1.57492a6.42121,6.42121 0 0 0 -0.76222,2.88977q-0.539,5.36834 -1.07795,10.73665c-2.76864,-0.51568 -1.53625,-5.31264 -3.98426,-6.64943c-0.51408,-0.28073 -1.12681,-0.35587 -1.65181,-0.61763c-1.181,-0.58885 -1.64322,-1.9343 -2.2293,-3.07568s-1.73651,-2.31322 -3.02924,-2.00416c-1.27017,0.30365 -1.7196,1.7859 -2.66642,2.6485c-1.23614,1.1262 -3.20261,1.07372 -4.85413,0.6523s-3.26166,-1.142 -4.971,-1.11318c-4.01461,0.06766 -6.56728,3.98764 -8.39968,7.39455a5.54859,5.54859 0 0 1 -1.54826,2.03165c-1.94868,1.37066 -5.027,-0.35486 -5.36142,-2.64177c-0.18716,-1.27987 0.21219,-2.71 -0.52657,-3.79337c-0.75809,-1.1117 -2.336,-1.318 -3.588,-1.89508c-2.91493,-1.34353 -3.98668,-4.786 -3.74376,-7.91779c0.21237,2.58225 1.36541,5.07659 3.74376,6.17278z"/>
   <path id="svg_243" d="m407.78035,118.77576c0.25069,0.80381 0.71762,1.53285 0.98764,2.33093a6.70809,6.70809 0 0 1 0.24782,2.86793a5.57361,5.57361 0 0 0 -0.24782,-1.12292c-0.27,-0.79809 -0.73695,-1.52713 -0.98764,-2.33093a4.82681,4.82681 0 0 1 -0.12725,-2.27589a4.54106,4.54106 0 0 0 0.12725,0.53088z"/>
  </g>
  <path id="svg_244" opacity="0.1" d="m471.866,215.76168c5.01689,-1.09936 16.79569,-4.57191 16.79569,-4.57191s0.79832,-0.16141 2.10708,-0.42317c-0.03051,-7.32466 -0.39261,-14.41375 -0.52785,-16.81751l-0.05235,0.00874s-10.03379,3.27189 -12.43317,5.01689s-9.81567,1.30876 -9.81567,1.30876s-11.56067,0.65438 -21.15821,11.34255s20.06757,5.23497 25.08448,4.13565z"/>
  <path id="svg_245" fill="#be6f72" d="m520.89337,196.29554a2.90961,2.90961 0 0 1 0.65471,4.89012c-2.65716,2.2 -6.53793,4.8329 -10.23991,5.20529c-6.17854,0.62153 -21.04986,3.6043 -22.52767,3.90227c-0.08024,0.01618 -0.15514,0.03471 -0.23367,0.05778c-1.22642,0.36034 -11.95441,3.50214 -16.68084,4.538c-5.0169,1.0995 -34.682,6.55265 -25.08448,-4.13552a33.9265,33.9265 0 0 1 20.945,-11.32535a2.72428,2.72428 0 0 1 0.38391,-0.00852c1.12193,0.05213 7.46122,0.27073 9.64495,-1.31743a20.58141,20.58141 0 0 1 3.60944,-1.79749a69.31068,69.31068 0 0 1 14.74625,-4.252l10.26056,-1.789a2.95242,2.95242 0 0 1 1.72817,0.22045l12.79358,5.8114z"/>
  <path id="svg_246" fill="#67647e" d="m499.34985,167.78268l4.79877,-0.43625s5.235,3.92626 9.16129,3.92626s6.32565,5.0169 6.32565,5.0169s6.54378,3.05376 8.725,3.49s5.8894,2.61751 4.79877,3.49s0.21812,2.83564 2.18126,4.36252s5.01689,9.37941 2.39938,10.47s-9.81566,3.27189 -11.7788,4.36252a5.409,5.409 0 0 1 -4.36252,0s-11.55565,-15.05063 -17.44754,-12.21495s-13.96255,2.83563 -13.96255,2.83563l-6.32565,-13.30568l15.48694,-11.99695z"/>
 </g>
</svg>